<?xml version="1.0" encoding="UTF-8" standalone="no"?>
<svg width="704px" height="418px" viewBox="0 0 704 418" version="1.1" xmlns="http://www.w3.org/2000/svg" xmlns:xlink="http://www.w3.org/1999/xlink">
    <!-- Generator: Sketch 49 (51002) - http://www.bohemiancoding.com/sketch -->
    <title>Group 4</title>
    <desc>Created with Sketch.</desc>
    <defs></defs>
    <g id="404" stroke="none" stroke-width="1" fill="none" fill-rule="evenodd">
        <g id="403" transform="translate(-482.000000, -239.000000)">
            <g id="Group-4" transform="translate(482.000000, 239.000000)">
                <g id="Bcube" transform="translate(0.000000, 188.000000)" fill-rule="nonzero">
                    <polygon id="Shape" fill="#8094FF" points="148 193 296 107 296 82 148 165"></polygon>
                    <polygon id="Shape" fill="#5E72D8" transform="translate(74.000000, 139.000000) scale(-1, 1) translate(-74.000000, -139.000000) " points="1.28369537e-16 193 148 110 148 85 0 165"></polygon>
                    <polygon id="Shape" fill="#B0BEFC" points="0 85 148 0 296 82 148 165"></polygon>
                </g>
                <g id="cube" transform="translate(67.000000, 141.000000)">
                    <g id="Group" transform="translate(0.000000, 67.000000)">
                        <g id="cube" transform="translate(56.787097, 0.000000)">
                            <g id="Shape">
                                <polygon fill="#5E72D8" fill-rule="nonzero" points="23.9768116 55.1781971 0 42.74471 0 12.1392034 23.9768116 24.5726904"></polygon>
                                <polygon fill="#8094FF" fill-rule="nonzero" points="23.9768116 55.1781971 47.9536232 42.74471 47.9536232 12.1392034 23.9768116 24.5726904"></polygon>
                                <polygon fill="#B0BEFC" fill-rule="nonzero" points="0 12.6792453 23.0546265 0 47.9536232 12.6792453 23.9768116 25.3584906"></polygon>
                            </g>
                        </g>
                        <g id="cube" transform="translate(28.393548, 15.796460)">
                            <g id="Shape">
                                <polygon fill="#5E72D8" fill-rule="nonzero" points="23.9768116 55.1781971 0 42.74471 0 12.1392034 23.9768116 24.5726904"></polygon>
                                <polygon fill="#8094FF" fill-rule="nonzero" points="23.9768116 55.1781971 47.9536232 42.74471 47.9536232 12.1392034 23.9768116 24.5726904"></polygon>
                                <polygon fill="#B0BEFC" fill-rule="nonzero" points="0 12.6792453 23.0546265 0 47.9536232 12.6792453 23.9768116 25.3584906"></polygon>
                            </g>
                        </g>
                        <g id="cube" transform="translate(0.000000, 31.592920)">
                            <g id="Shape">
                                <polygon fill="#5E72D8" fill-rule="nonzero" points="23.9768116 55.1781971 0 42.74471 0 12.1392034 23.9768116 24.5726904"></polygon>
                                <polygon fill="#8094FF" fill-rule="nonzero" points="23.9768116 55.1781971 47.9536232 42.74471 47.9536232 12.1392034 23.9768116 24.5726904"></polygon>
                                <polygon fill="#B0BEFC" fill-rule="nonzero" points="0 12.6792453 23.0546265 0 47.9536232 12.6792453 23.9768116 25.3584906"></polygon>
                            </g>
                        </g>
                        <g id="cube" transform="translate(85.180645, 14.743363)">
                            <g id="Shape">
                                <polygon fill="#5E72D8" fill-rule="nonzero" points="23.9768116 55.1781971 0 42.74471 0 12.1392034 23.9768116 24.5726904"></polygon>
                                <polygon fill="#8094FF" fill-rule="nonzero" points="23.9768116 55.1781971 47.9536232 42.74471 47.9536232 12.1392034 23.9768116 24.5726904"></polygon>
                                <polygon fill="#B0BEFC" fill-rule="nonzero" points="0 12.6792453 23.0546265 0 47.9536232 12.6792453 23.9768116 25.3584906"></polygon>
                            </g>
                        </g>
                        <g id="cube" transform="translate(56.787097, 30.539823)">
                            <g id="Shape">
                                <polygon fill="#5E72D8" fill-rule="nonzero" points="23.9768116 55.1781971 0 42.74471 0 12.1392034 23.9768116 24.5726904"></polygon>
                                <polygon fill="#8094FF" fill-rule="nonzero" points="23.9768116 55.1781971 47.9536232 42.74471 47.9536232 12.1392034 23.9768116 24.5726904"></polygon>
                                <polygon fill="#B0BEFC" fill-rule="nonzero" points="0 12.6792453 23.0546265 0 47.9536232 12.6792453 23.9768116 25.3584906"></polygon>
                            </g>
                        </g>
                        <g id="cube" transform="translate(28.393548, 46.336283)">
                            <g id="Shape">
                                <polygon fill="#5E72D8" fill-rule="nonzero" points="23.9768116 55.1781971 0 42.74471 0 12.1392034 23.9768116 24.5726904"></polygon>
                                <polygon fill="#8094FF" fill-rule="nonzero" points="23.9768116 55.1781971 47.9536232 42.74471 47.9536232 12.1392034 23.9768116 24.5726904"></polygon>
                                <polygon fill="#B0BEFC" fill-rule="nonzero" points="0 12.6792453 23.0546265 0 47.9536232 12.6792453 23.9768116 25.3584906"></polygon>
                            </g>
                        </g>
                        <g id="cube" transform="translate(113.574194, 31.592920)">
                            <g id="Shape">
                                <polygon fill="#5E72D8" fill-rule="nonzero" points="23.9768116 55.1781971 0 42.74471 0 12.1392034 23.9768116 24.5726904"></polygon>
                                <polygon fill="#8094FF" fill-rule="nonzero" points="23.9768116 55.1781971 47.9536232 42.74471 47.9536232 12.1392034 23.9768116 24.5726904"></polygon>
                                <polygon fill="#B0BEFC" fill-rule="nonzero" points="0 12.6792453 23.0546265 0 47.9536232 12.6792453 23.9768116 25.3584906"></polygon>
                            </g>
                        </g>
                        <g id="cube" transform="translate(85.180645, 47.389381)">
                            <g id="Shape">
                                <polygon fill="#5E72D8" fill-rule="nonzero" points="23.9768116 55.1781971 0 42.74471 0 12.1392034 23.9768116 24.5726904"></polygon>
                                <polygon fill="#8094FF" fill-rule="nonzero" points="23.9768116 55.1781971 47.9536232 42.74471 47.9536232 12.1392034 23.9768116 24.5726904"></polygon>
                                <polygon fill="#B0BEFC" fill-rule="nonzero" points="0 12.6792453 23.0546265 0 47.9536232 12.6792453 23.9768116 25.3584906"></polygon>
                            </g>
                        </g>
                        <g id="cube" transform="translate(56.787097, 63.185841)">
                            <g id="Shape">
                                <polygon fill="#5E72D8" fill-rule="nonzero" points="23.9768116 55.1781971 0 42.74471 0 12.1392034 23.9768116 24.5726904"></polygon>
                                <polygon fill="#8094FF" fill-rule="nonzero" points="23.9768116 55.1781971 47.9536232 42.74471 47.9536232 12.1392034 23.9768116 24.5726904"></polygon>
                                <polygon fill="#B0BEFC" fill-rule="nonzero" points="0 12.6792453 23.0546265 0 47.9536232 12.6792453 23.9768116 25.3584906"></polygon>
                            </g>
                        </g>
                    </g>
                    <g id="Group" transform="translate(0.000000, 34.000000)">
                        <g id="cube" transform="translate(56.787097, 0.000000)">
                            <g id="Shape">
                                <polygon fill="#5E72D8" fill-rule="nonzero" points="23.9768116 55.1781971 0 42.74471 0 12.1392034 23.9768116 24.5726904"></polygon>
                                <polygon fill="#8094FF" fill-rule="nonzero" points="23.9768116 55.1781971 47.9536232 42.74471 47.9536232 12.1392034 23.9768116 24.5726904"></polygon>
                                <polygon fill="#B0BEFC" fill-rule="nonzero" points="0 12.6792453 23.0546265 0 47.9536232 12.6792453 23.9768116 25.3584906"></polygon>
                            </g>
                        </g>
                        <g id="cube" transform="translate(28.393548, 15.796460)">
                            <g id="Shape">
                                <polygon fill="#5E72D8" fill-rule="nonzero" points="23.9768116 55.1781971 0 42.74471 0 12.1392034 23.9768116 24.5726904"></polygon>
                                <polygon fill="#8094FF" fill-rule="nonzero" points="23.9768116 55.1781971 47.9536232 42.74471 47.9536232 12.1392034 23.9768116 24.5726904"></polygon>
                                <polygon fill="#B0BEFC" fill-rule="nonzero" points="0 12.6792453 23.0546265 0 47.9536232 12.6792453 23.9768116 25.3584906"></polygon>
                            </g>
                        </g>
                        <g id="cube" transform="translate(0.000000, 31.592920)">
                            <g id="Shape">
                                <polygon fill="#5E72D8" fill-rule="nonzero" points="23.9768116 55.1781971 0 42.74471 0 12.1392034 23.9768116 24.5726904"></polygon>
                                <polygon fill="#8094FF" fill-rule="nonzero" points="23.9768116 55.1781971 47.9536232 42.74471 47.9536232 12.1392034 23.9768116 24.5726904"></polygon>
                                <polygon fill="#B0BEFC" fill-rule="nonzero" points="0 12.6792453 23.0546265 0 47.9536232 12.6792453 23.9768116 25.3584906"></polygon>
                            </g>
                        </g>
                        <g id="cube" transform="translate(85.180645, 14.743363)">
                            <g id="Shape">
                                <polygon fill="#5E72D8" fill-rule="nonzero" points="23.9768116 55.1781971 0 42.74471 0 12.1392034 23.9768116 24.5726904"></polygon>
                                <polygon fill="#8094FF" fill-rule="nonzero" points="23.9768116 55.1781971 47.9536232 42.74471 47.9536232 12.1392034 23.9768116 24.5726904"></polygon>
                                <polygon fill="#B0BEFC" fill-rule="nonzero" points="0 12.6792453 23.0546265 0 47.9536232 12.6792453 23.9768116 25.3584906"></polygon>
                            </g>
                        </g>
                        <g id="cube" transform="translate(56.787097, 30.539823)">
                            <g id="Shape">
                                <polygon fill="#5E72D8" fill-rule="nonzero" points="23.9768116 55.1781971 0 42.74471 0 12.1392034 23.9768116 24.5726904"></polygon>
                                <polygon fill="#8094FF" fill-rule="nonzero" points="23.9768116 55.1781971 47.9536232 42.74471 47.9536232 12.1392034 23.9768116 24.5726904"></polygon>
                                <polygon fill="#B0BEFC" fill-rule="nonzero" points="0 12.6792453 23.0546265 0 47.9536232 12.6792453 23.9768116 25.3584906"></polygon>
                            </g>
                        </g>
                        <g id="cube" transform="translate(28.393548, 46.336283)">
                            <g id="Shape">
                                <polygon fill="#5E72D8" fill-rule="nonzero" points="23.9768116 55.1781971 0 42.74471 0 12.1392034 23.9768116 24.5726904"></polygon>
                                <polygon fill="#8094FF" fill-rule="nonzero" points="23.9768116 55.1781971 47.9536232 42.74471 47.9536232 12.1392034 23.9768116 24.5726904"></polygon>
                                <polygon fill="#B0BEFC" fill-rule="nonzero" points="0 12.6792453 23.0546265 0 47.9536232 12.6792453 23.9768116 25.3584906"></polygon>
                            </g>
                        </g>
                        <g id="cube" transform="translate(113.574194, 31.592920)">
                            <g id="Shape">
                                <polygon fill="#5E72D8" fill-rule="nonzero" points="23.9768116 55.1781971 0 42.74471 0 12.1392034 23.9768116 24.5726904"></polygon>
                                <polygon fill="#8094FF" fill-rule="nonzero" points="23.9768116 55.1781971 47.9536232 42.74471 47.9536232 12.1392034 23.9768116 24.5726904"></polygon>
                                <polygon fill="#B0BEFC" fill-rule="nonzero" points="0 12.6792453 23.0546265 0 47.9536232 12.6792453 23.9768116 25.3584906"></polygon>
                            </g>
                        </g>
                        <g id="cube" transform="translate(85.180645, 47.389381)">
                            <g id="Shape">
                                <polygon fill="#5E72D8" fill-rule="nonzero" points="23.9768116 55.1781971 0 42.74471 0 12.1392034 23.9768116 24.5726904"></polygon>
                                <polygon fill="#8094FF" fill-rule="nonzero" points="23.9768116 55.1781971 47.9536232 42.74471 47.9536232 12.1392034 23.9768116 24.5726904"></polygon>
                                <polygon fill="#B0BEFC" fill-rule="nonzero" points="0 12.6792453 23.0546265 0 47.9536232 12.6792453 23.9768116 25.3584906"></polygon>
                            </g>
                        </g>
                        <g id="cube" transform="translate(56.787097, 63.185841)">
                            <g id="Shape">
                                <polygon fill="#5E72D8" fill-rule="nonzero" points="23.9768116 55.1781971 0 42.74471 0 12.1392034 23.9768116 24.5726904"></polygon>
                                <polygon fill="#8094FF" fill-rule="nonzero" points="23.9768116 55.1781971 47.9536232 42.74471 47.9536232 12.1392034 23.9768116 24.5726904"></polygon>
                                <polygon fill="#B0BEFC" fill-rule="nonzero" points="0 12.6792453 23.0546265 0 47.9536232 12.6792453 23.9768116 25.3584906"></polygon>
                            </g>
                        </g>
                    </g>
                    <g id="Group">
                        <g id="cube" transform="translate(56.787097, 0.000000)">
                            <g id="Shape">
                                <polygon fill="#5E72D8" fill-rule="nonzero" points="23.9768116 55.1781971 0 42.74471 0 12.1392034 23.9768116 24.5726904"></polygon>
                                <polygon fill="#8094FF" fill-rule="nonzero" points="23.9768116 55.1781971 47.9536232 42.74471 47.9536232 12.1392034 23.9768116 24.5726904"></polygon>
                                <polygon fill="#B0BEFC" fill-rule="nonzero" points="0 12.6792453 23.0546265 0 47.9536232 12.6792453 23.9768116 25.3584906"></polygon>
                            </g>
                        </g>
                        <g id="cube" transform="translate(28.393548, 15.796460)">
                            <g id="Shape">
                                <polygon fill="#5E72D8" fill-rule="nonzero" points="23.9768116 55.1781971 0 42.74471 0 12.1392034 23.9768116 24.5726904"></polygon>
                                <polygon fill="#8094FF" fill-rule="nonzero" points="23.9768116 55.1781971 47.9536232 42.74471 47.9536232 12.1392034 23.9768116 24.5726904"></polygon>
                                <polygon fill="#B0BEFC" fill-rule="nonzero" points="0 12.6792453 23.0546265 0 47.9536232 12.6792453 23.9768116 25.3584906"></polygon>
                            </g>
                        </g>
                        <g id="cube" transform="translate(0.000000, 31.592920)">
                            <g id="Shape">
                                <polygon fill="#5E72D8" fill-rule="nonzero" points="23.9768116 55.1781971 0 42.74471 0 12.1392034 23.9768116 24.5726904"></polygon>
                                <polygon fill="#8094FF" fill-rule="nonzero" points="23.9768116 55.1781971 47.9536232 42.74471 47.9536232 12.1392034 23.9768116 24.5726904"></polygon>
                                <polygon fill="#B0BEFC" fill-rule="nonzero" points="0 12.6792453 23.0546265 0 47.9536232 12.6792453 23.9768116 25.3584906"></polygon>
                            </g>
                        </g>
                        <g id="cube" transform="translate(85.180645, 14.743363)">
                            <g id="Shape">
                                <polygon fill="#5E72D8" fill-rule="nonzero" points="23.9768116 55.1781971 0 42.74471 0 12.1392034 23.9768116 24.5726904"></polygon>
                                <polygon fill="#8094FF" fill-rule="nonzero" points="23.9768116 55.1781971 47.9536232 42.74471 47.9536232 12.1392034 23.9768116 24.5726904"></polygon>
                                <polygon fill="#B0BEFC" fill-rule="nonzero" points="0 12.6792453 23.0546265 0 47.9536232 12.6792453 23.9768116 25.3584906"></polygon>
                            </g>
                        </g>
                        <g id="cube" transform="translate(56.787097, 30.539823)">
                            <g id="Shape">
                                <polygon fill="#5E72D8" fill-rule="nonzero" points="23.9768116 55.1781971 0 42.74471 0 12.1392034 23.9768116 24.5726904"></polygon>
                                <polygon fill="#8094FF" fill-rule="nonzero" points="23.9768116 55.1781971 47.9536232 42.74471 47.9536232 12.1392034 23.9768116 24.5726904"></polygon>
                                <polygon fill="#B0BEFC" fill-rule="nonzero" points="0 12.6792453 23.0546265 0 47.9536232 12.6792453 23.9768116 25.3584906"></polygon>
                            </g>
                        </g>
                        <g id="cube" transform="translate(28.393548, 46.336283)">
                            <g id="Shape">
                                <polygon fill="#5E72D8" fill-rule="nonzero" points="23.9768116 55.1781971 0 42.74471 0 12.1392034 23.9768116 24.5726904"></polygon>
                                <polygon fill="#8094FF" fill-rule="nonzero" points="23.9768116 55.1781971 47.9536232 42.74471 47.9536232 12.1392034 23.9768116 24.5726904"></polygon>
                                <polygon fill="#B0BEFC" fill-rule="nonzero" points="0 12.6792453 23.0546265 0 47.9536232 12.6792453 23.9768116 25.3584906"></polygon>
                            </g>
                        </g>
                        <g id="cube" transform="translate(113.574194, 31.592920)">
                            <g id="Shape">
                                <polygon fill="#5E72D8" fill-rule="nonzero" points="23.9768116 55.1781971 0 42.74471 0 12.1392034 23.9768116 24.5726904"></polygon>
                                <polygon fill="#8094FF" fill-rule="nonzero" points="23.9768116 55.1781971 47.9536232 42.74471 47.9536232 12.1392034 23.9768116 24.5726904"></polygon>
                                <polygon fill="#B0BEFC" fill-rule="nonzero" points="0 12.6792453 23.0546265 0 47.9536232 12.6792453 23.9768116 25.3584906"></polygon>
                            </g>
                        </g>
                        <g id="cube" transform="translate(85.180645, 47.389381)">
                            <g id="Shape">
                                <polygon fill="#5E72D8" fill-rule="nonzero" points="23.9768116 55.1781971 0 42.74471 0 12.1392034 23.9768116 24.5726904"></polygon>
                                <polygon fill="#8094FF" fill-rule="nonzero" points="23.9768116 55.1781971 47.9536232 42.74471 47.9536232 12.1392034 23.9768116 24.5726904"></polygon>
                                <polygon fill="#B0BEFC" fill-rule="nonzero" points="0 12.6792453 23.0546265 0 47.9536232 12.6792453 23.9768116 25.3584906"></polygon>
                            </g>
                        </g>
                        <g id="cube" transform="translate(56.787097, 63.185841)">
                            <g id="Shape">
                                <polygon fill="#5E72D8" fill-rule="nonzero" points="23.9768116 55.1781971 0 42.74471 0 12.1392034 23.9768116 24.5726904"></polygon>
                                <polygon fill="#8094FF" fill-rule="nonzero" points="23.9768116 55.1781971 47.9536232 42.74471 47.9536232 12.1392034 23.9768116 24.5726904"></polygon>
                                <polygon fill="#B0BEFC" fill-rule="nonzero" points="0 12.6792453 23.0546265 0 47.9536232 12.6792453 23.9768116 25.3584906"></polygon>
                            </g>
                        </g>
                    </g>
                </g>
                <g id="line" transform="translate(21.000000, 116.000000)" stroke="#DCDCE0" stroke-linecap="round" stroke-linejoin="round" stroke-width="14">
                    <path d="M1.5,155.5 L1.5,0.110167643" id="Line"></path>
                    <path d="M43.5,177.5 L43.5,22.1101676" id="Line"></path>
                    <path d="M85.5,199.5 L85.5,44.1101676" id="Line"></path>
                    <path d="M127.5,221.5 L127.5,66.1101676" id="Line"></path>
                    <path d="M169.5,199.5 L169.5,44.1101676" id="Line"></path>
                    <path d="M211.5,177.5 L211.5,22.1101676" id="Line"></path>
                    <path d="M253.5,155.5 L253.5,0.110167643" id="Line"></path>
                </g>
                <g id="Bcube" fill-rule="nonzero">
                    <polygon id="Shape" fill="#8094FF" points="148 193 296 107 296 82 148 165"></polygon>
                    <polygon id="Shape" fill="#5E72D8" transform="translate(74.000000, 139.000000) scale(-1, 1) translate(-74.000000, -139.000000) " points="1.28369537e-16 193 148 110 148 85 0 165"></polygon>
                    <polygon id="Shape" fill="#B0BEFC" points="0 85 148 0 296 82 148 165"></polygon>
                </g>
                <text id="403" font-family="ArialMT, Arial" font-size="100" font-weight="normal" fill="#3F51B5">
                    <tspan x="541" y="218">403</tspan>
                </text>
                <text id="抱歉-!-你没有权限访问" font-family="PingFangSC-Regular, PingFang SC" font-size="50" font-weight="normal" fill="#7885CB">
                    <tspan x="574.7" y="342">抱歉 !</tspan>
                    <tspan x="358" y="412">你没有权限访问</tspan>
                </text>
            </g>
        </g>
    </g>
</svg>