<svg xmlns="http://www.w3.org/2000/svg" width="1000" height="352" viewBox="0 0 1000 352">
  <defs>
    <radialGradient id="403pic-a" cx="49.015%" cy="100%" r="100%" fx="49.015%" fy="100%" gradientTransform="matrix(0 1 -.5125 0 1.003 .51)">
      <stop offset="0%" stop-color="#A1B7FE" stop-opacity=".2"/>
      <stop offset="100%" stop-color="#A1B7FE" stop-opacity="0"/>
    </radialGradient>
    <linearGradient id="403pic-b" x1="53.231%" x2="53.231%" y1="93.49%" y2="0%">
      <stop offset="0%" stop-color="#A1B7FE" stop-opacity=".05"/>
      <stop offset="100%" stop-color="#A1B7FE" stop-opacity=".6"/>
    </linearGradient>
  </defs>
  <g fill="none" fill-rule="evenodd">
    <rect width="1000" height="106.204" y="215" fill="url(#403pic-a)" transform="matrix(1 0 0 -1 0 536.204)"/>
    <path fill="url(#403pic-b)" d="M905.777077,193.269022 L804.478399,192.954194 C804.478399,170.566412 804.478399,136.984739 804.478399,92.209176 C860.424114,92.209176 905.777077,137.45521 905.777077,193.269022 Z M94,193.269022 C94,111.969451 160.062078,46.0631275 241.553782,46.0631275 C241.553782,111.284154 241.553782,160.199924 241.553782,192.810437 L94,193.269022 Z M271.634301,150.26 L271.634301,110.88 C281.534301,99.88 281.534301,99.88 292.754301,86.68 L340.494301,30.8 C351.054301,18.7 355.234301,13.2 360.954301,4.62 L406.054301,4.62 C404.734301,17.6 404.294301,26.4 404.294301,41.14 L404.294301,112.64 L410.674301,112.64 C417.494301,112.64 424.754301,111.98 432.454301,110.88 L432.454301,150.92 C425.854301,150.04 417.714301,149.6 410.894301,149.6 L404.294301,149.6 L404.294301,160.6 C404.294301,172.92 404.734301,179.3 406.054301,187.66 L360.734301,187.66 C361.834301,180.18 362.494301,170.94 362.494301,160.16 L362.494301,149.38 L300.234301,149.38 C285.934301,149.38 279.774301,149.6 271.634301,150.26 Z M362.714301,113.08 L362.714301,87.56 C362.714301,77.66 363.154301,65.56 364.034301,55.88 C359.634301,62.04 356.334301,66.44 350.394301,73.92 L318.274301,113.08 L362.714301,113.08 Z M522.214301,191.62 C500.654301,191.62 482.394301,184.58 468.974301,171.16 C461.714301,163.9 456.214301,155.54 452.914301,146.74 C447.194301,131.12 444.334301,114.18 444.334301,96.36 C444.334301,73.26 449.834301,49.28 458.194301,35.42 C471.614301,12.98 494.494301,0.66 522.214301,0.66 C543.554301,0.66 562.254301,7.92 575.674301,21.12 C582.934301,28.38 588.434301,36.74 591.734301,45.54 C597.454301,61.16 600.314301,78.1 600.314301,96.14 C600.314301,119.24 594.814301,143.44 586.454301,157.3 C573.254301,179.3 550.154301,191.62 522.214301,191.62 Z M522.214301,37.84 C501.534301,37.84 489.434301,58.74 489.434301,94.6 C489.434301,133.98 500.654301,154.22 522.434301,154.22 C543.994301,154.22 554.994301,134.42 554.994301,95.26 C554.994301,57.64 543.554301,37.84 522.214301,37.84 Z M615.054301,139.92 L661.694301,131.78 C663.014301,139.04 664.334301,142.12 667.854301,145.86 C673.794301,152.02 682.594301,155.32 693.154301,155.32 C710.314301,155.32 721.094301,146.74 721.094301,133.32 C721.094301,124.3 716.694301,117.26 709.214301,114.4 C704.154301,112.64 697.334301,111.54 688.754301,111.54 C680.174301,111.54 670.274301,111.98 661.694301,112.86 L661.694301,75.02 C669.174301,75.9 676.434301,76.34 685.014301,76.34 C705.914301,76.34 716.254301,69.3 716.254301,55.22 C716.254301,43.34 707.894301,36.52 693.374301,36.52 C677.754301,36.52 669.834301,42.68 666.534301,56.76 L619.014301,49.94 C623.194301,36.3 626.714301,29.7 633.754301,22 C647.174301,7.48 667.414301,0 694.254301,0 C718.234301,0 738.034301,6.6 750.574301,18.7 C758.714301,26.84 762.894301,37.4 762.894301,49.94 C762.894301,73.26 750.354301,87.78 725.054301,93.72 C738.474301,95.7 745.734301,98.78 753.434301,105.38 C762.674301,113.74 767.954301,125.18 767.954301,137.94 C767.954301,149.16 764.874301,159.5 759.154301,167.2 C754.314301,173.8 746.614301,179.96 738.474301,183.7 C727.034301,188.98 709.214301,192.28 692.714301,192.28 C672.914301,192.28 653.114301,187.66 641.454301,179.96 C631.334301,173.36 623.634301,163.68 618.794301,151.58 C617.474301,148.5 616.594301,145.64 615.054301,139.92 Z"/>
    <g transform="translate(266 132)">
      <g transform="translate(185.052)">
        <path fill="#0E1D80" fill-opacity=".1" d="M103.805703 127L306.284012 127C307.388582 127 308.284012 127.895431 308.284012 129 308.284012 129.513275 308.086676 130.006903 307.732844 130.378727L251.948083 189 43.9480835 189 102.356872 127.621273C102.73439 127.224559 103.258069 127 103.805703 127zM40.7931496 161.075531L41.6179381 161.934137C42.3611692 162.707842 42.3615396 163.930155 41.6187775 164.70431L11.8716002 195.708764C11.4944296 196.101876 10.9732167 196.324115 10.4284281 196.324115L7.81283444 196.324115C6.99179157 196.324115 6.32620482 195.658528 6.32620482 194.837485 6.32620482 194.4558 6.47301064 194.088737 6.73621668 193.812321L37.902416 161.081875C38.6641156 160.281946 39.9300663 160.250954 40.729996 161.012654 40.7515116 161.033141 40.772568 161.054105 40.7931496 161.075531zM319.466945 160.61448L320.291733 161.473086C321.034964 162.246791 321.035335 163.469104 320.292573 164.243259L290.545395 195.247713C290.168225 195.640825 289.647012 195.863064 289.102223 195.863064L286.48663 195.863064C285.665587 195.863064 285 195.197477 285 194.376434 285 193.994749 285.146806 193.627686 285.410012 193.35127L316.576211 160.620825C317.337911 159.820895 318.603861 159.789903 319.403791 160.551603 319.425307 160.57209 319.446363 160.593054 319.466945 160.61448z"/>
        <g transform="translate(44.294)">
          <rect width="207.235" height="15.568" y="172.108" fill="#5266D4" rx="2"/>
          <polygon fill="#0E1D80" points="17.758 157.405 190.618 157.405 207.235 172.973 0 172.973"/>
          <path fill="#5266D4" stroke="#303F9F" d="M190.539453,9.73420124 C190.680594,10.0082593 190.760273,10.3191443 190.760273,10.6486394 L190.760273,170.972788 C190.760273,172.077358 189.864843,172.972788 188.760273,172.972788 L19.341843,172.972788 C18.2372735,172.972788 17.341843,172.077358 17.341843,170.972788 L17.341843,10.6486394 C17.341843,10.3191443 17.421522,10.0082593 17.5626629,9.73420124 C17.4162824,9.51848658 17.341843,9.30068941 17.341843,9.08107138 C17.341843,4.06573414 56.1628809,0 104.051058,0 C151.939235,0 190.760273,4.06573414 190.760273,9.08107138 C190.760273,9.30068941 190.685834,9.51848658 190.539453,9.73420124 Z"/>
          <path fill="#BBCBFF" fill-opacity=".6" fill-rule="nonzero" d="M103.183966,166.918741 L103.183966,12.9729591 L23.4114881,12.9729591 L23.4114881,166.918741 L103.183966,166.918741 Z M104.91815,166.918741 L184.690628,166.918741 L184.690628,12.9729591 L104.91815,12.9729591 L104.91815,166.918741 Z M23.4114881,11.2432312 L184.690628,11.2432312 C185.648392,11.2432312 186.424812,12.0176568 186.424812,12.9729591 L186.424812,166.918741 C186.424812,167.874043 185.648392,168.648468 184.690628,168.648468 L23.4114881,168.648468 C22.4537245,168.648468 21.6773038,167.874043 21.6773038,166.918741 L21.6773038,12.9729591 C21.6773038,12.0176568 22.4537245,11.2432312 23.4114881,11.2432312 Z"/>
          <rect width="50.291" height="126.27" x="37.285" y="26.811" fill="#BBCBFF"/>
          <path fill="#5266D4" fill-rule="nonzero" d="M60.6964506,49.2972446 L60.6964506,26.8107822 L64.1648192,26.8107822 L64.1648192,49.2972446 L87.5763072,49.2972446 L87.5763072,52.7567004 L64.1648192,52.7567004 L64.1648192,75.2431628 L87.5763072,75.2431628 L87.5763072,78.7026186 L64.1648192,78.7026186 L64.1648192,101.189081 L87.5763072,101.189081 L87.5763072,104.648537 L64.1648192,104.648537 L64.1648192,127.134999 L87.5763072,127.134999 L87.5763072,130.594455 L64.1648192,130.594455 L64.1648192,153.080917 L60.6964506,153.080917 L60.6964506,130.594455 L37.2849625,130.594455 L37.2849625,127.134999 L60.6964506,127.134999 L60.6964506,104.648537 L37.2849625,104.648537 L37.2849625,101.189081 L60.6964506,101.189081 L60.6964506,78.7026186 L37.2849625,78.7026186 L37.2849625,75.2431628 L60.6964506,75.2431628 L60.6964506,52.7567004 L37.2849625,52.7567004 L37.2849625,49.2972446 L60.6964506,49.2972446 Z"/>
          <rect width="50.291" height="126.27" x="120.526" y="26.811" fill="#BBCBFF"/>
          <path fill="#5266D4" fill-rule="nonzero" d="M143.937297,49.2972446 L143.937297,26.8107822 L147.405666,26.8107822 L147.405666,49.2972446 L170.817154,49.2972446 L170.817154,52.7567004 L147.405666,52.7567004 L147.405666,75.2431628 L170.817154,75.2431628 L170.817154,78.7026186 L147.405666,78.7026186 L147.405666,101.189081 L170.817154,101.189081 L170.817154,104.648537 L147.405666,104.648537 L147.405666,127.134999 L170.817154,127.134999 L170.817154,130.594455 L147.405666,130.594455 L147.405666,153.080917 L143.937297,153.080917 L143.937297,130.594455 L120.525809,130.594455 L120.525809,127.134999 L143.937297,127.134999 L143.937297,104.648537 L120.525809,104.648537 L120.525809,101.189081 L143.937297,101.189081 L143.937297,78.7026186 L120.525809,78.7026186 L120.525809,75.2431628 L143.937297,75.2431628 L143.937297,52.7567004 L120.525809,52.7567004 L120.525809,49.2972446 L143.937297,49.2972446 Z"/>
          <g transform="translate(90.178 81.297)">
            <rect width="3.468" height="16.432" x="6.07" fill="#FAFAFA" rx="1.734"/>
            <rect width="1.734" height="11.243" x="6.937" y="2.595" fill="#D3D3D3" rx=".867"/>
            <rect width="8.671" height="2.595" y="8.649" fill="#5266D4" rx="1.297"/>
          </g>
          <g transform="matrix(-1 0 0 1 117.925 81.297)">
            <rect width="3.468" height="16.432" x="6.07" fill="#FAFAFA" rx="1.734"/>
            <rect width="1.734" height="11.243" x="6.937" y="2.595" fill="#D3D3D3" rx=".867"/>
            <rect width="8.671" height="2.595" y="8.649" fill="#5266D4" rx="1.297"/>
          </g>
        </g>
        <g transform="translate(0 102.054)">
          <g transform="translate(276.675)">
            <rect width="1.734" height="10.378" x="9.538" y="4.324" fill="#D8D8D8"/>
            <rect width="5.937" height="83.757" x="7.437" y="10.014" fill="#A1B7FE" stroke="#5266D4" rx="2"/>
            <ellipse cx="10.405" cy="3.459" fill="#A1B7FE" stroke="#5266D4" rx="3.468" ry="3.459"/>
            <rect width="13.873" height="3.459" x="3.468" y="11.243" fill="#D8D8D8" rx="1.73"/>
            <path stroke="#979797" stroke-linecap="round" stroke-linejoin="round" d="M5.20255291,12.9729591 C5.20255291,11.5400056 4.03792177,10.3783673 2.60127645,10.3783673 C1.16463114,10.3783673 0,11.5400056 0,12.9729591 C0,14.4059126 1.16463114,15.5675509 2.60127645,15.5675509"/>
          </g>
          <g transform="matrix(-1 0 0 1 18.281 0)">
            <rect width="1.734" height="10.378" x="9.538" y="4.324" fill="#D8D8D8"/>
            <rect width="5.937" height="83.757" x="7.437" y="10.014" fill="#A1B7FE" stroke="#5266D4" rx="2"/>
            <ellipse cx="10.405" cy="3.459" fill="#A1B7FE" stroke="#5266D4" rx="3.468" ry="3.459"/>
            <rect width="13.873" height="3.459" x="3.468" y="11.243" fill="#D8D8D8" rx="1.73"/>
            <path stroke="#979797" stroke-linecap="round" stroke-linejoin="round" d="M5.20255291,12.9729591 C5.20255291,11.5400056 4.03792177,10.3783673 2.60127645,10.3783673 C1.16463114,10.3783673 0,11.5400056 0,12.9729591 C0,14.4059126 1.16463114,15.5675509 2.60127645,15.5675509"/>
          </g>
          <g transform="translate(17.414 10.378)">
            <path fill="#F49130" d="M4.96573765,2.71578596 C46.5633232,17.5690428 88.8407463,24.9245173 131.798007,24.7822096 C174.757601,24.6398942 217.037284,17.0034866 258.637055,1.87298693 L258.637058,1.87299331 C259.88442,1.41930773 261.263392,2.06270991 261.717077,3.31007229 C261.812841,3.57336522 261.86183,3.8513751 261.86183,4.13154269 L261.861839,4.72670357 C261.861839,6.43776627 260.773503,7.95934529 259.15421,8.51217988 C216.015641,23.2399001 173.563573,30.6729402 131.798007,30.8113001 C90.2181519,30.9490448 47.9578869,23.861345 5.017212,9.54820066 L5.01721148,9.54820223 C3.05662291,8.8946916 1.7341843,7.05992283 1.7341843,4.99328699 L1.7341843,4.99328699 C1.7341843,3.6576826 2.81690558,2.57496132 4.15250997,2.57496132 C4.42965199,2.57496132 4.70473183,2.6225998 4.96573409,2.71579592 Z"/>
            <path fill="#FFF" fill-opacity=".9" stroke="#F49130" d="M112.311947,23.403823 C118.22924,23.9722115 124.146533,24.2564057 130.063826,24.2564057 C135.981112,24.2564057 141.898399,23.9722121 147.815685,23.403825 L147.815683,23.4038032 C148.915204,23.2981883 149.892159,24.1039082 149.997774,25.2034291 C150.00388,25.2669905 150.006938,25.3308078 150.006938,25.3946617 L150.006918,29.9842921 C150.006918,31.01319 149.226269,31.8742083 148.202292,31.974709 C142.156136,32.5681228 136.109981,32.8648297 130.063826,32.8648297 C124.017676,32.8648297 117.971525,32.5681233 111.925375,31.9747104 L111.925373,31.9747261 C110.901377,31.8742237 110.120715,31.0131902 110.120715,29.9842742 L110.1207,25.3946739 C110.1207,24.2900965 111.016137,23.3946597 112.120715,23.3946597 C112.184568,23.3946597 112.248386,23.3977176 112.311947,23.403823 Z"/>
            <path fill="#FFF" fill-opacity=".9" stroke="#F49130" d="M242.186147,3.45313756 L256.664401,3.46299744 C259.054077,3.46462485 260.990888,5.40143241 260.992519,7.79110909 L260.992519,7.79110909 C260.994147,10.1765776 259.061662,12.1117017 256.676194,12.1133298 C256.674231,12.1133311 256.672268,12.1133311 256.670305,12.1133298 L242.186596,12.1034662 C241.083092,12.1027147 240.188712,11.208336 240.187959,10.1048316 L240.184785,5.4545021 C240.184031,4.34993286 241.07885,3.45389144 242.18342,3.45313757 C242.184329,3.45313695 242.185238,3.45313695 242.186147,3.45313756 Z" transform="rotate(-16 250.589 7.783)"/>
            <path fill="#FFF" fill-opacity=".9" stroke="#F49130" d="M184.730362,17.5054931 L206.74149,17.515824 C207.845439,17.5162624 208.740256,18.4110793 208.740696,19.5150278 L208.745727,24.1642115 C208.746167,25.2687809 207.851093,26.1645678 206.746523,26.1650075 C206.745993,26.1650077 206.745463,26.1650077 206.744933,26.1650075 L184.733805,26.1530869 C183.629857,26.1526486 182.735039,25.2578316 182.7346,24.1538832 L182.729568,19.5046995 C182.729129,18.40013 183.624203,17.5043432 184.728772,17.5039035 C184.729302,17.5039033 184.729832,17.5039033 184.730362,17.5039035 Z" transform="rotate(-9 195.738 21.834)"/>
            <path fill="#FFF" fill-opacity=".9" stroke="#F49130" d="M58.8318407,6.74189569 L72.7519495,2.76062594 C75.0495027,2.10350614 77.4451409,3.43142776 78.1053928,5.72808286 C78.7644821,8.02069357 77.4402513,10.4135192 75.1476406,11.0726084 C75.1457539,11.0731508 75.1438668,11.0736919 75.1419793,11.0742317 L61.2166267,15.0570012 C60.1556631,15.3604459 59.0494057,14.7472385 58.7445147,13.6866896 L57.4596593,9.21738077 C57.1544741,8.15580846 57.767647,7.04783257 58.8292193,6.74264736 C58.8300929,6.74239621 58.8309667,6.74214565 58.8318407,6.74189569 Z M1.70568248,19.6977324 L23.4474334,16.264637 C24.537859,16.0923744 25.5616404,16.8361943 25.73477,17.9264826 L26.4670317,22.5176401 C26.6402586,23.6085417 25.8963364,24.6333203 24.8054349,24.8065473 C24.8049113,24.8066304 24.8043878,24.8067134 24.8038642,24.8067961 L3.0618652,28.2383213 C1.97143963,28.410584 0.947658275,27.666764 0.774528679,26.5764758 L0.0422669814,21.9853182 C-0.13096,20.8944167 0.612962223,19.869638 1.70386377,19.696411 C1.70438729,19.6963279 1.70491085,19.696245 1.70543443,19.6961623 L1.70568248,19.6977324 Z" transform="matrix(-1 0 0 1 78.274 0)"/>
          </g>
        </g>
      </g>
      <g transform="translate(0 43.705)">
        <ellipse cx="86.254" cy="156.259" fill="#0E1D80" fill-opacity=".1" rx="86.254" ry="19.867"/>
        <g transform="translate(16.42 .205)">
          <path fill="#F49130" d="M18.5309138,69.254723 C14.4929644,68.227479 10.4331882,67.3578545 5.9805305,69.254723 C3.79785513,70.1623936 2.29180913,72.2114464 1.06951093,74.6898763 C-0.540212153,84.4079303 1.66974665,90.5822644 5.9805305,94.7999434 C10.7715029,96.3978784 14.7657988,95.5934757 18.5309138,94.7999434 L18.5309138,69.254723 Z"/>
          <path fill="#0E1D80" d="M21.2592581,77.2607038 L25.6246088,87.8157714 L29.6025346,117.002544 L32.800154,153.499599 L38.1749921,153.499599 C39.9156757,137.965931 41.4490052,121.97571 41.994674,115.997041 C42.5403429,110.018373 42.1583747,78.8966849 40.0193528,77.2661389 L21.2592581,77.2607038 Z"/>
          <path fill="#0E1D80" d="M10.8915501,74.6898763 L27.8072841,74.6898763 C29.4824875,86.3374097 25.6246088,110.801035 25.6246088,110.801035 C23.9275787,121.013688 17.4395762,153.499599 17.4395762,153.499599 L10.8915501,153.499599 L12.5285566,112.431581 L10.8915501,74.6898763 Z"/>
          <path fill="#F49130" d="M45.8143559 158.804308C42.5403429 159.771766 34.3553102 159.771766 31.626966 158.32058 30.3064474 156.3911 33.3894764 153.494164 32.7183037 153.494164L38.1749921 153.494164C38.1749921 153.494164 48.5427001 157.358558 45.8143559 158.804308zM11.1589278 152.956083C11.1589278 152.956083 8.47969379 156.266092 9.68562193 157.929249 10.8915501 159.592406 24.5332711 160.173967 24.5332711 158.391237 24.5332711 156.608506 17.6578437 152.956083 17.6578437 152.956083L11.1589278 152.956083z"/>
          <path fill="#7589F2" d="M13.6198943,42.0789566 C13.6198943,42.0789566 7.61753702,55.1233245 7.61753702,60.5584778 C7.61753702,65.993631 17.985245,68.1676923 17.985245,68.1676923 L19.6222515,43.1659873 L13.6198943,42.0789566 Z"/>
          <path fill="#FFE4A8" d="M39.0808024,6.83198766 C40.330416,7.80015587 41.3715083,9.00904579 42.1420046,10.3865779 C43.1624053,12.4193252 44.1828061,20.5448794 44.1828061,20.5448794 L42.1420046,20.5448794 C42.1420046,20.5448794 41.1216039,25.6213125 39.0808024,27.1485906 C36.5325289,27.6540598 30.4101245,26.6431213 30.4101245,26.6431213 L25.3135775,28.1649643 L25.3135775,5.33732051 L39.0808024,6.83198766 Z"/>
          <path fill="#5266D4" d="M23.4419334,29.6161502 C27.4576507,29.6297758 31.4028502,30.6683208 34.9009791,32.6326602 C39.8119987,38.4210985 43.6316805,88.8049693 41.4490052,90.7398839 C39.2663298,92.6747984 14.1655631,90.7398839 11.4372189,88.8104045 C8.70887471,86.880925 12.5285566,45.0574206 18.5309138,34.1218922 C21.2592581,30.2629334 23.4419334,29.6161502 23.4419334,29.6161502 Z"/>
          <polygon fill="#FFE4A8" points="55.964 61.14 56.389 66.043 69.982 64.874 69.818 62.423"/>
          <ellipse cx="71.447" cy="63.319" fill="#FFE4A8" rx="3.798" ry="2.707" transform="rotate(-4.92 71.447 63.319)"/>
          <path fill="#7589F2" d="M32.7183037,32.8391961 C25.0789399,35.0132574 29.4442907,45.8835639 31.0812972,48.6011406 C32.7183037,51.3187172 39.2663298,63.8195697 43.6316805,65.4501157 C47.9970313,67.0806617 56.7277327,66.5371464 56.7277327,66.5371464 L56.7277327,61.1019931 C56.7277327,61.1019931 50.7253755,58.9279318 48.5427001,57.2973858 C46.3600247,55.6668398 40.3576675,30.6651348 32.7183037,32.8391961 Z"/>
          <polygon fill="#FFE4A8" points="24.806 29.687 32.456 31.209 32.964 27.149 25.827 25.116"/>
          <path fill="#F49130" d="M11.4224652,46.1781804 L11.4224652,46.1781804 C12.1156857,46.1760199 12.6794034,46.7362347 12.6815639,47.4294552 C12.6815721,47.4320774 12.681572,47.4346996 12.6815638,47.4373217 L12.598983,73.6483216 C12.5967811,74.3471771 12.030781,74.913158 11.3319254,74.9153361 L11.3319254,74.9153361 C10.6387049,74.9174965 10.0749873,74.3572817 10.0728268,73.6640612 C10.0728186,73.661439 10.0728186,73.6588168 10.0728269,73.6561947 L10.1554077,47.4451948 C10.1576095,46.7463393 10.7236097,46.1803584 11.4224652,46.1781804 Z" transform="rotate(15 11.377 60.547)"/>
          <path fill="#0E1D80" d="M21.2592581 50.2316865C24.5332711 49.1446559 27.2616153 44.2530179 27.2616153 44.2530179 27.2616153 44.2530179 29.9899595 36.100288 32.1726349 34.469742 34.3553102 32.8391961 35.4466479 33.3827114 35.4466479 33.3827114L32.7183037 30.6651348C32.7183037 30.6651348 26.0393171 30.4640341 25.0789399 27.9475581 25.0789399 27.9475581 15.2569008 33.9262267 13.6198943 39.36138 12.5285566 43.1659873 13.0742254 46.9705946 15.2569008 49.1446559 17.4395762 51.3187172 17.985245 51.3187172 21.2592581 50.2316865zM33.4713267.228276437C29.9026525.228276437 23.7857048 2.26102376 21.7449033 6.83198766 19.7041019 11.4029516 21.7449033 21.0503486 23.7857048 23.0830959 25.8265063 25.1158433 27.8673077 24.0994696 29.3951805 22.5776267 30.9230532 21.0557838 32.4836661 16.2348028 30.9230532 12.9302296 30.9230532 12.9302296 32.450926 13.9466033 35.5121282 13.9466033 38.5733304 13.9466033 42.1420046 14.4520725 44.6902781 9.88110865 47.2385516 5.31014475 37.0400009.228276437 33.4713267.228276437z"/>
          <path fill="#FFE4A8" d="M33.4276732,14.7727466 C33.4713267,16.9902891 33.5695471,18.2077635 32.3363355,18.4523454 C31.1031239,18.6969273 31.0212736,18.3762532 29.9572194,17.1750843 C28.8931651,15.9739155 27.8291109,12.1801785 31.0485571,11.9736427 C32.3145088,11.8921154 33.3894764,12.5552041 33.4276732,14.7727466 Z"/>
        </g>
        <g transform="translate(86.42)">
          <path fill="#FFE4A8" d="M38.0934166,87.4046808 C38.0934166,87.4046808 30.1028781,113.781725 30.6022867,117.474511 C31.1016954,121.167297 34.0981473,152.81975 34.0981473,152.81975 L30.6022867,156.512537 C32.4351165,157.78391 35.871048,157.298573 39.5916425,156.512537 L38.0934166,151.237128 C38.0934166,151.237128 42.5880944,111.671561 42.0886858,116.419429 C41.5892771,121.167297 49.5798156,85.2945172 49.5798156,85.2945172 L38.0934166,87.4046808 Z"/>
          <path fill="#FFE4A8" d="M26.8962791,120.599811 C29.0918588,123.824122 45.850779,145.518298 50.0959021,151.001209 C50.6992922,151.782995 50.8621795,152.841302 50.5239395,153.782243 L49.8390797,155.692555 C49.6652367,156.178965 49.3673918,156.606078 48.9779693,156.927397 C48.549932,157.280963 48.0463587,157.76118 48.0463587,158.067252 C48.0463587,158.373324 49.7685795,158.315276 51.0677986,158.209734 C51.9962251,158.1362 52.8226136,157.565519 53.2533069,156.700482 C54.1446317,154.916821 55.5798156,151.951088 55.5798156,151.207016 C55.5798156,150.65292 54.4669186,149.660825 53.4144503,148.842874 C52.1582584,147.871983 51.1837844,146.554859 50.5994755,145.038081 L40.0244357,117.597139 C39.982881,117.490429 39.9475655,117.381167 39.9186853,117.269959 L31.4989393,84.4199843 C31.1628722,83.0641363 29.9333379,82.1678108 28.6033927,82.3091426 L24.0057682,82.836853 C22.5230518,82.9976949 21.44416,84.3855774 21.593652,85.9397903 C22.4094408,94.1245791 24.821557,117.560199 26.8962791,120.599811 Z"/>
          <path fill="#5266D4" d="M55.5669955 150.324688C56.5432133 149.992303 57.5798156 152.504261 57.5798156 153.049155 57.5798156 153.594048 54.7316751 158.688801 54.0573804 159.042982 53.3830857 159.397163 48.8944968 159.35902 48.01892 159.042982 46.9521254 158.661557 47.9082149 156.318515 50.0317402 156.318515L53.0509703 156.318515C53.0509703 156.318515 54.6561944 152.885687 55.5669955 150.324688zM31.5318219 155.739844C28.7536285 155.966279 27.1833452 157.666947 27.6665093 158.630498 28.1496734 159.594049 32.2855579 159.271259 34.4308064 159.112273 36.8466268 158.630498 38.2961191 158.630498 39.2624472 157.666947 39.7456113 156.22162 39.7456113 154.91119 38.7792832 154.294517 38.7792832 154.294517 35.8802987 156.703395 34.4308064 156.703395 33.3983693 156.631526 32.4010178 156.30003 31.5318219 155.739844z"/>
          <path fill="#0E1D80" d="M19.5798156,88.7171268 C19.5798156,88.7171268 23.5798156,118.722673 25.0798156,119.249086 C26.5798156,119.775499 33.0798156,115.564195 36.5798156,115.037782 C40.0798156,114.511368 41.5798156,117.143434 43.5798156,116.617021 C45.5798156,116.090608 49.5798156,85.5586482 49.5798156,85.5586482 L34.0798156,80.2945172 L19.5798156,88.7171268 Z"/>
          <path fill="#5266D4" d="M45.5852101,31.2945172 L39.5162707,31.2945172 L31.4243515,39.2017159 L35.4703111,31.2945172 C35.4703111,31.2945172 28.8956267,34.9845433 25.861157,39.2017159 C22.8266873,43.4188885 22.3209423,42.8917419 21.3094524,49.2175008 C20.2979625,55.5432597 24.8496671,65.0318981 22.8266873,72.4119501 C20.8037075,79.7920022 17.7692378,84.0091748 18.7807277,88.753494 C21.8151974,91.3892269 32.9415863,83.4820282 41.0335056,84.5363214 C49.1254248,85.5906145 48.1139349,87.6992008 50.1369147,86.1177611 C52.1598945,84.5363214 46.5967001,54.4889666 46.5967001,60.8147255 C46.5967001,67.1404844 49.1254248,34.4573967 49.1254248,34.4573967 L45.5852101,31.2945172 Z"/>
          <path fill="#FFE4A8" d="M23.0798156,43.2945172 L35.7948156,56.2962896 L37.5798156,48.0243455 L46.5798156,50.1264914 C46.5798156,50.1264914 41.0798156,67.469195 39.0798156,68.5202679 C37.0798156,69.5713409 36.5798156,70.0968773 32.5798156,66.418122 C28.5798156,62.7393667 19.5798156,43.2945172 19.5798156,43.2945172 L23.0798156,43.2945172 Z"/>
          <path fill="#7589F2" d="M43.9617175,30.4993475 C39.8987319,32.64937 38.7661746,36.1216564 36.8514926,40.1744489 C35.5310223,43.9369884 35.327873,49.8495503 35.8357462,51.4620672 C36.3436194,53.0745841 43.9617175,55.7621123 45.4853371,55.2246067 C47.0089568,54.687101 51.5798156,44.474494 51.5798156,38.561932 C51.5798156,32.64937 47.0089568,29.4243362 43.9617175,30.4993475 Z"/>
          <polygon fill="#F49130" points=".58 32.815 17.58 32.295 28.58 57.295 12.58 57.295"/>
          <path fill="#FFE4A8" d="M19.5798156 37.2945172C19.900377 37.8639775 20.5219041 38.2414694 21.2221794 38.2920263 22.3170885 38.2920263 24.2003323 38.8306812 24.5069068 39.78829 24.9558196 41.1798152 23.1984904 44.5663586 22.8645431 44.2770809L19.5798156 37.2945172zM8.86110732 50.3290223C9.77320478 50.045989 14.922755 51.560465 14.5617164 52.8117697 13.9298989 55.0164495 11.6639068 55.2945172 11.2363611 55.2945172 10.5665395 55.2945172 7.67823093 50.6964689 8.86110732 50.3290223z"/>
          <polygon fill="#FFE4A8" points="35.26 23.357 35.26 30.795 30.58 39.295 40.46 30.795 43.58 30.795 42.54 22.295"/>
          <path fill="#FFE4A8" d="M34.0801447,4.44228355 C34.0801447,4.44228355 29.5302256,13.5702904 29.5802247,15.7180567 C29.6352237,18.1181856 30.5802069,25.9199468 32.5801713,26.9938299 C34.5801358,28.0677131 41.0800202,25.9199468 41.0800202,25.9199468 L52.5798156,14.107232 L42.0800024,2.29451722 L34.0801447,4.44228355 Z"/>
          <path fill="#0E1D80" d="M33.6930232,6.92153987 C34.7118911,6.92153987 34.2024571,11.1876762 35.2213251,12.7874773 C36.240193,14.3872784 37.2590609,14.9205454 38.7873628,15.9870795 C39.6604874,16.5354763 40.0771916,17.6259739 39.8062307,18.6534146 L43.3722685,17.0536135 C44.9718911,19.9812496 41.8439666,22.3862839 41.8439666,22.3862839 C41.8439666,22.3862839 39.2967968,25.5858861 41.8439666,27.1856872 C43.3722685,27.7189543 44.3911364,26.1191531 44.3911364,26.1191531 C44.3911364,26.1191531 46.9383062,27.7189543 48.4666081,26.1191531 C49.99491,24.519352 50.5043439,23.0901964 49.485476,20.2532158 C52.2415137,20.3225405 54.1162307,18.712074 54.5798156,14.3872784 C54.1722685,10.8730486 53.2145326,7.81209582 48.976042,7.4548069 C48.976042,4.78847173 48.3035892,2.31411268 44.9005703,0.522335443 C41.940759,-0.0109315927 39.1796269,0.341024651 36.7496269,2.12213655 C35.2569854,1.27957463 32.6741552,1.05560248 31.1458534,2.12213655 C29.6175515,3.18867062 28.5986835,6.92153987 29.1081175,9.05460801 C29.1081175,9.05460801 27.5798156,9.58787505 27.5798156,12.2542102 C27.5798156,14.9205454 29.1081175,14.9205454 29.1081175,14.9205454 C29.3832118,15.0911909 30.6364194,12.7874773 30.6364194,12.7874773 C30.6364194,12.7874773 33.1835892,6.92153987 33.6930232,6.92153987 Z"/>
          <path fill="#FFE4A8" d="M39.968143,18.0672272 C39.4766188,19.9995281 39.3755577,21.5399257 40.115141,22.1332238 C40.8547242,22.7265218 42.3798275,21.5889136 43.1607539,20.2553539 C43.7697326,19.1705765 43.7101005,17.741947 43.013756,16.7336674 C42.3706401,15.7920109 40.7674442,16.4234107 39.968143,18.0672272 Z"/>
        </g>
      </g>
    </g>
  </g>
</svg>
