<?xml version="1.0" encoding="UTF-8" standalone="no"?>
<svg width="612px" height="499px" viewBox="0 0 612 499" version="1.1" xmlns="http://www.w3.org/2000/svg" xmlns:xlink="http://www.w3.org/1999/xlink">
    <!-- Generator: Sketch 49 (51002) - http://www.bohemiancoding.com/sketch -->
    <title>Group 3</title>
    <desc>Created with Sketch.</desc>
    <defs></defs>
    <g id="404" stroke="none" stroke-width="1" fill="none" fill-rule="evenodd">
        <g transform="translate(-529.000000, -158.000000)" id="Group-3">
            <g transform="translate(529.000000, 158.000000)">
                <g id="Group-2">
                    <g id="Group" transform="translate(13.000000, 282.000000)">
                        <g id="cube" transform="translate(65.538497, 0.000000)">
                            <g id="Shape">
                                <polygon fill="#5E72D8" fill-rule="nonzero" points="27.9729469 63.0607966 0 48.8510971 0 13.8733753 27.9729469 28.0830748"></polygon>
                                <polygon fill="#8094FF" fill-rule="nonzero" points="27.9729469 63.0607966 55.9458937 48.8510971 55.9458937 13.8733753 27.9729469 28.0830748"></polygon>
                                <polygon fill="#B0BEFC" fill-rule="nonzero" points="0 14.490566 26.8970643 0 55.9458937 14.490566 27.9729469 28.9811321"></polygon>
                            </g>
                        </g>
                        <g id="cube" transform="translate(32.769249, 18.053097)">
                            <g id="Shape">
                                <polygon fill="#5E72D8" fill-rule="nonzero" points="27.9729469 63.0607966 0 48.8510971 0 13.8733753 27.9729469 28.0830748"></polygon>
                                <polygon fill="#8094FF" fill-rule="nonzero" points="27.9729469 63.0607966 55.9458937 48.8510971 55.9458937 13.8733753 27.9729469 28.0830748"></polygon>
                                <polygon fill="#B0BEFC" fill-rule="nonzero" points="0 14.490566 26.8970643 0 55.9458937 14.490566 27.9729469 28.9811321"></polygon>
                            </g>
                        </g>
                        <g id="cube" transform="translate(0.000000, 36.106195)">
                            <g id="Shape">
                                <polygon fill="#5E72D8" fill-rule="nonzero" points="27.9729469 63.0607966 0 48.8510971 0 13.8733753 27.9729469 28.0830748"></polygon>
                                <polygon fill="#8094FF" fill-rule="nonzero" points="27.9729469 63.0607966 55.9458937 48.8510971 55.9458937 13.8733753 27.9729469 28.0830748"></polygon>
                                <polygon fill="#B0BEFC" fill-rule="nonzero" points="0 14.490566 26.8970643 0 55.9458937 14.490566 27.9729469 28.9811321"></polygon>
                            </g>
                        </g>
                        <g id="cube" transform="translate(98.307746, 16.849558)">
                            <g id="Shape">
                                <polygon fill="#5E72D8" fill-rule="nonzero" points="27.9729469 63.0607966 0 48.8510971 0 13.8733753 27.9729469 28.0830748"></polygon>
                                <polygon fill="#8094FF" fill-rule="nonzero" points="27.9729469 63.0607966 55.9458937 48.8510971 55.9458937 13.8733753 27.9729469 28.0830748"></polygon>
                                <polygon fill="#B0BEFC" fill-rule="nonzero" points="0 14.490566 26.8970643 0 55.9458937 14.490566 27.9729469 28.9811321"></polygon>
                            </g>
                        </g>
                        <g id="cube" transform="translate(65.538497, 34.902655)">
                            <g id="Shape">
                                <polygon fill="#5E72D8" fill-rule="nonzero" points="27.9729469 63.0607966 0 48.8510971 0 13.8733753 27.9729469 28.0830748"></polygon>
                                <polygon fill="#8094FF" fill-rule="nonzero" points="27.9729469 63.0607966 55.9458937 48.8510971 55.9458937 13.8733753 27.9729469 28.0830748"></polygon>
                                <polygon fill="#B0BEFC" fill-rule="nonzero" points="0 14.490566 26.8970643 0 55.9458937 14.490566 27.9729469 28.9811321"></polygon>
                            </g>
                        </g>
                        <g id="cube" transform="translate(32.769249, 52.955752)">
                            <g id="Shape">
                                <polygon fill="#5E72D8" fill-rule="nonzero" points="27.9729469 63.0607966 0 48.8510971 0 13.8733753 27.9729469 28.0830748"></polygon>
                                <polygon fill="#8094FF" fill-rule="nonzero" points="27.9729469 63.0607966 55.9458937 48.8510971 55.9458937 13.8733753 27.9729469 28.0830748"></polygon>
                                <polygon fill="#B0BEFC" fill-rule="nonzero" points="0 14.490566 26.8970643 0 55.9458937 14.490566 27.9729469 28.9811321"></polygon>
                            </g>
                        </g>
                        <g id="cube" transform="translate(131.076994, 36.106195)">
                            <g id="Shape">
                                <polygon fill="#5E72D8" fill-rule="nonzero" points="27.9729469 63.0607966 0 48.8510971 0 13.8733753 27.9729469 28.0830748"></polygon>
                                <polygon fill="#8094FF" fill-rule="nonzero" points="27.9729469 63.0607966 55.9458937 48.8510971 55.9458937 13.8733753 27.9729469 28.0830748"></polygon>
                                <polygon fill="#B0BEFC" fill-rule="nonzero" points="0 14.490566 26.8970643 0 55.9458937 14.490566 27.9729469 28.9811321"></polygon>
                            </g>
                        </g>
                        <g id="cube" transform="translate(98.307746, 54.159292)">
                            <g id="Shape">
                                <polygon fill="#5E72D8" fill-rule="nonzero" points="27.9729469 63.0607966 0 48.8510971 0 13.8733753 27.9729469 28.0830748"></polygon>
                                <polygon fill="#8094FF" fill-rule="nonzero" points="27.9729469 63.0607966 55.9458937 48.8510971 55.9458937 13.8733753 27.9729469 28.0830748"></polygon>
                                <polygon fill="#B0BEFC" fill-rule="nonzero" points="0 14.490566 26.8970643 0 55.9458937 14.490566 27.9729469 28.9811321"></polygon>
                            </g>
                        </g>
                        <g id="cube" transform="translate(65.538497, 72.212389)">
                            <g id="Shape">
                                <polygon fill="#5E72D8" fill-rule="nonzero" points="27.9729469 63.0607966 0 48.8510971 0 13.8733753 27.9729469 28.0830748"></polygon>
                                <polygon fill="#8094FF" fill-rule="nonzero" points="27.9729469 63.0607966 55.9458937 48.8510971 55.9458937 13.8733753 27.9729469 28.0830748"></polygon>
                                <polygon fill="#B0BEFC" fill-rule="nonzero" points="0 14.490566 26.8970643 0 55.9458937 14.490566 27.9729469 28.9811321"></polygon>
                            </g>
                        </g>
                    </g>
                    <g id="Group" transform="translate(13.000000, 243.000000)">
                        <g id="cube" transform="translate(65.439538, 0.000000)">
                            <g id="Shape">
                                <polygon fill="#5E72D8" fill-rule="nonzero" points="27.9729469 63.0607966 0 48.8510971 0 13.8733753 27.9729469 28.0830748"></polygon>
                                <polygon fill="#8094FF" fill-rule="nonzero" points="27.9729469 63.0607966 55.9458937 48.8510971 55.9458937 13.8733753 27.9729469 28.0830748"></polygon>
                                <polygon fill="#B0BEFC" fill-rule="nonzero" points="0 14.490566 26.8970643 0 55.9458937 14.490566 27.9729469 28.9811321"></polygon>
                            </g>
                        </g>
                        <g id="cube" transform="translate(32.719769, 18.061224)">
                            <g id="Shape">
                                <polygon fill="#5E72D8" fill-rule="nonzero" points="27.9729469 63.0607966 0 48.8510971 0 13.8733753 27.9729469 28.0830748"></polygon>
                                <polygon fill="#8094FF" fill-rule="nonzero" points="27.9729469 63.0607966 55.9458937 48.8510971 55.9458937 13.8733753 27.9729469 28.0830748"></polygon>
                                <polygon fill="#B0BEFC" fill-rule="nonzero" points="0 14.490566 26.8970643 0 55.9458937 14.490566 27.9729469 28.9811321"></polygon>
                            </g>
                        </g>
                        <g id="cube" transform="translate(0.000000, 36.122449)">
                            <g id="Shape">
                                <polygon fill="#5E72D8" fill-rule="nonzero" points="27.9729469 63.0607966 0 48.8510971 0 13.8733753 27.9729469 28.0830748"></polygon>
                                <polygon fill="#8094FF" fill-rule="nonzero" points="27.9729469 63.0607966 55.9458937 48.8510971 55.9458937 13.8733753 27.9729469 28.0830748"></polygon>
                                <polygon fill="#B0BEFC" fill-rule="nonzero" points="0 14.490566 26.8970643 0 55.9458937 14.490566 27.9729469 28.9811321"></polygon>
                            </g>
                        </g>
                        <g id="cube" transform="translate(98.159307, 16.857143)">
                            <g id="Shape">
                                <polygon fill="#5E72D8" fill-rule="nonzero" points="27.9729469 63.0607966 0 48.8510971 0 13.8733753 27.9729469 28.0830748"></polygon>
                                <polygon fill="#8094FF" fill-rule="nonzero" points="27.9729469 63.0607966 55.9458937 48.8510971 55.9458937 13.8733753 27.9729469 28.0830748"></polygon>
                                <polygon fill="#B0BEFC" fill-rule="nonzero" points="0 14.490566 26.8970643 0 55.9458937 14.490566 27.9729469 28.9811321"></polygon>
                            </g>
                        </g>
                        <g id="cube" transform="translate(65.439538, 34.918367)">
                            <g id="Shape">
                                <polygon fill="#5E72D8" fill-rule="nonzero" points="27.9729469 63.0607966 0 48.8510971 0 13.8733753 27.9729469 28.0830748"></polygon>
                                <polygon fill="#8094FF" fill-rule="nonzero" points="27.9729469 63.0607966 55.9458937 48.8510971 55.9458937 13.8733753 27.9729469 28.0830748"></polygon>
                                <polygon fill="#B0BEFC" fill-rule="nonzero" points="0 14.490566 26.8970643 0 55.9458937 14.490566 27.9729469 28.9811321"></polygon>
                            </g>
                        </g>
                        <g id="cube" transform="translate(32.719769, 52.979592)">
                            <g id="Shape">
                                <polygon fill="#5E72D8" fill-rule="nonzero" points="27.9729469 63.0607966 0 48.8510971 0 13.8733753 27.9729469 28.0830748"></polygon>
                                <polygon fill="#8094FF" fill-rule="nonzero" points="27.9729469 63.0607966 55.9458937 48.8510971 55.9458937 13.8733753 27.9729469 28.0830748"></polygon>
                                <polygon fill="#B0BEFC" fill-rule="nonzero" points="0 14.490566 26.8970643 0 55.9458937 14.490566 27.9729469 28.9811321"></polygon>
                            </g>
                        </g>
                        <g id="cube" transform="translate(98.159307, 54.183673)">
                            <g id="Shape">
                                <polygon fill="#5E72D8" fill-rule="nonzero" points="27.9729469 63.0607966 0 48.8510971 0 13.8733753 27.9729469 28.0830748"></polygon>
                                <polygon fill="#8094FF" fill-rule="nonzero" points="27.9729469 63.0607966 55.9458937 48.8510971 55.9458937 13.8733753 27.9729469 28.0830748"></polygon>
                                <polygon fill="#B0BEFC" fill-rule="nonzero" points="0 14.490566 26.8970643 0 55.9458937 14.490566 27.9729469 28.9811321"></polygon>
                            </g>
                        </g>
                    </g>
                    <g id="Group" transform="translate(46.000000, 203.000000)">
                        <g id="cube" transform="translate(32.547945, 0.000000)">
                            <g id="Shape">
                                <polygon fill="#5E72D8" fill-rule="nonzero" points="27.47343 63.0607966 0 48.8510971 0 13.8733753 27.47343 28.0830748"></polygon>
                                <polygon fill="#8094FF" fill-rule="nonzero" points="27.47343 63.0607966 54.9468599 48.8510971 54.9468599 13.8733753 27.47343 28.0830748"></polygon>
                                <polygon fill="#B0BEFC" fill-rule="nonzero" points="0 14.490566 26.4167596 0 54.9468599 14.490566 27.47343 28.9811321"></polygon>
                            </g>
                        </g>
                        <g id="cube" transform="translate(0.000000, 53.072165)">
                            <g id="Shape">
                                <polygon fill="#5E72D8" fill-rule="nonzero" points="27.47343 63.0607966 0 48.8510971 0 13.8733753 27.47343 28.0830748"></polygon>
                                <polygon fill="#8094FF" fill-rule="nonzero" points="27.47343 63.0607966 54.9468599 48.8510971 54.9468599 13.8733753 27.47343 28.0830748"></polygon>
                                <polygon fill="#B0BEFC" fill-rule="nonzero" points="0 14.490566 26.4167596 0 54.9468599 14.490566 27.47343 28.9811321"></polygon>
                            </g>
                        </g>
                    </g>
                    <g id="cube" transform="translate(0.000000, 153.000000)">
                        <g id="Shape">
                            <polygon fill="#5E72D8" fill-rule="nonzero" points="27.9729469 63.0607966 0 48.8510971 0 13.8733753 27.9729469 28.0830748"></polygon>
                            <polygon fill="#8094FF" fill-rule="nonzero" points="27.9729469 63.0607966 55.9458937 48.8510971 55.9458937 13.8733753 27.9729469 28.0830748"></polygon>
                            <polygon fill="#B0BEFC" fill-rule="nonzero" points="0 14.490566 26.8970643 0 55.9458937 14.490566 27.9729469 28.9811321"></polygon>
                        </g>
                    </g>
                    <g id="cube" transform="translate(74.000000, 92.000000)">
                        <g id="Shape">
                            <polygon fill="#5E72D8" fill-rule="nonzero" points="27.9729469 63.0607966 0 48.8510971 0 13.8733753 27.9729469 28.0830748"></polygon>
                            <polygon fill="#8094FF" fill-rule="nonzero" points="27.9729469 63.0607966 55.9458937 48.8510971 55.9458937 13.8733753 27.9729469 28.0830748"></polygon>
                            <polygon fill="#B0BEFC" fill-rule="nonzero" points="0 14.490566 26.8970643 0 55.9458937 14.490566 27.9729469 28.9811321"></polygon>
                        </g>
                    </g>
                    <g id="cube" transform="translate(158.000000, 0.000000)">
                        <g id="Shape">
                            <polygon fill="#5E72D8" fill-rule="nonzero" points="27.9729469 63.0607966 0 48.8510971 0 13.8733753 27.9729469 28.0830748"></polygon>
                            <polygon fill="#8094FF" fill-rule="nonzero" points="27.9729469 63.0607966 55.9458937 48.8510971 55.9458937 13.8733753 27.9729469 28.0830748"></polygon>
                            <polygon fill="#B0BEFC" fill-rule="nonzero" points="0 14.490566 26.8970643 0 55.9458937 14.490566 27.9729469 28.9811321"></polygon>
                        </g>
                    </g>
                    <g id="cube" transform="translate(125.000000, 161.000000)">
                        <g id="Shape">
                            <polygon fill="#5E72D8" fill-rule="nonzero" points="27.9729469 63.0607966 0 48.8510971 0 13.8733753 27.9729469 28.0830748"></polygon>
                            <polygon fill="#8094FF" fill-rule="nonzero" points="27.9729469 63.0607966 55.9458937 48.8510971 55.9458937 13.8733753 27.9729469 28.0830748"></polygon>
                            <polygon fill="#B0BEFC" fill-rule="nonzero" points="0 14.490566 26.8970643 0 55.9458937 14.490566 27.9729469 28.9811321"></polygon>
                        </g>
                    </g>
                    <g id="cube" transform="translate(191.000000, 251.000000)">
                        <g id="Shape">
                            <polygon fill="#5E72D8" fill-rule="nonzero" points="27.9729469 63.0607966 0 48.8510971 0 13.8733753 27.9729469 28.0830748"></polygon>
                            <polygon fill="#8094FF" fill-rule="nonzero" points="27.9729469 63.0607966 55.9458937 48.8510971 55.9458937 13.8733753 27.9729469 28.0830748"></polygon>
                            <polygon fill="#B0BEFC" fill-rule="nonzero" points="0 14.490566 26.8970643 0 55.9458937 14.490566 27.9729469 28.9811321"></polygon>
                        </g>
                    </g>
                    <g id="cube" transform="translate(203.000000, 178.000000)">
                        <g id="Shape">
                            <polygon fill="#5E72D8" fill-rule="nonzero" points="27.9729469 63.0607966 0 48.8510971 0 13.8733753 27.9729469 28.0830748"></polygon>
                            <polygon fill="#8094FF" fill-rule="nonzero" points="27.9729469 63.0607966 55.9458937 48.8510971 55.9458937 13.8733753 27.9729469 28.0830748"></polygon>
                            <polygon fill="#B0BEFC" fill-rule="nonzero" points="0 14.490566 26.8970643 0 55.9458937 14.490566 27.9729469 28.9811321"></polygon>
                        </g>
                    </g>
                    <g id="cube" transform="translate(274.000000, 144.000000)">
                        <g id="Shape">
                            <polygon fill="#5E72D8" fill-rule="nonzero" points="27.9729469 63.0607966 0 48.8510971 0 13.8733753 27.9729469 28.0830748"></polygon>
                            <polygon fill="#8094FF" fill-rule="nonzero" points="27.9729469 63.0607966 55.9458937 48.8510971 55.9458937 13.8733753 27.9729469 28.0830748"></polygon>
                            <polygon fill="#B0BEFC" fill-rule="nonzero" points="0 14.490566 26.8970643 0 55.9458937 14.490566 27.9729469 28.9811321"></polygon>
                        </g>
                    </g>
                    <g id="cube" transform="translate(181.000000, 116.000000)">
                        <g id="Shape">
                            <polygon fill="#5E72D8" fill-rule="nonzero" points="27.9729469 63.0607966 0 48.8510971 0 13.8733753 27.9729469 28.0830748"></polygon>
                            <polygon fill="#8094FF" fill-rule="nonzero" points="27.9729469 63.0607966 55.9458937 48.8510971 55.9458937 13.8733753 27.9729469 28.0830748"></polygon>
                            <polygon fill="#B0BEFC" fill-rule="nonzero" points="0 14.490566 26.8970643 0 55.9458937 14.490566 27.9729469 28.9811321"></polygon>
                        </g>
                    </g>
                    <g id="cube" transform="translate(269.000000, 73.000000)">
                        <g id="Shape">
                            <polygon fill="#5E72D8" fill-rule="nonzero" points="27.9729469 63.0607966 0 48.8510971 0 13.8733753 27.9729469 28.0830748"></polygon>
                            <polygon fill="#8094FF" fill-rule="nonzero" points="27.9729469 63.0607966 55.9458937 48.8510971 55.9458937 13.8733753 27.9729469 28.0830748"></polygon>
                            <polygon fill="#B0BEFC" fill-rule="nonzero" points="0 14.490566 26.8970643 0 55.9458937 14.490566 27.9729469 28.9811321"></polygon>
                        </g>
                    </g>
                </g>
                <text id="404" font-family="ArialMT, Arial" font-size="100" font-weight="normal" fill="#3F51B5">
                    <tspan x="447" y="299">404</tspan>
                </text>
                <text id="抱歉-!-你访问的页面不存在" font-family="PingFangSC-Regular, PingFang SC" font-size="50" font-weight="normal" fill="#7885CB">
                    <tspan x="480.7" y="423">抱歉 !</tspan>
                    <tspan x="164" y="493">你访问的页面不存在</tspan>
                </text>
            </g>
        </g>
    </g>
</svg>