<?xml version="1.0" encoding="UTF-8" standalone="no"?>
<svg width="45px" height="45px" viewBox="0 0 45 45" version="1.1" xmlns="http://www.w3.org/2000/svg" xmlns:xlink="http://www.w3.org/1999/xlink">
    <!-- Generator: Sketch 49 (51002) - http://www.bohemiancoding.com/sketch -->
    <title>nav_logo</title>
    <desc>Created with Sketch.</desc>
    <defs></defs>
    <g id="首页" stroke="none" stroke-width="1" fill="none" fill-rule="evenodd">
        <g transform="translate(-747.000000, -1178.000000)" fill-rule="nonzero" id="安装与配置">
            <g transform="translate(200.000000, 1132.000000)">
                <g id="Group" transform="translate(529.333333, 32.000000)">
                    <g id="nav_logo" transform="translate(20.000000, 17.000000)">
                        <path d="M36.5,8.77272727 C36.2727273,8.04545455 35.7272727,7.45454545 35.0454545,7.09090909 L21.1818182,0.454545455 C20.8181818,0.272727273 20.4090909,0.227272727 20.0454545,0.227272727 C19.6818182,0.227272727 19.2727273,0.227272727 18.9090909,0.318181818 L5.04545455,7 C4.36363636,7.31818182 3.86363636,7.90909091 3.68181818,8.68181818 L0.272727273,23.6363636 C0.136363636,24.4090909 0.318181818,25.1818182 0.772727273,25.8181818 L10.3636364,37.6818182 C10.9090909,38.2272727 11.6818182,38.5909091 12.4545455,38.6363636 L27.7272727,38.6363636 C28.5454545,38.7272727 29.3181818,38.3636364 29.8181818,37.6818182 L39.4090909,25.8181818 C39.8636364,25.1818182 40.0454545,24.4090909 39.9545455,23.6363636 L36.5,8.77272727 Z" id="Shape" stroke="#FFFFFF" stroke-width="5" fill="#FFFFFF"></path>
                        <path d="M36.5,8.77272727 C36.2727273,8.04545455 35.7272727,7.45454545 35.0454545,7.09090909 L21.1818182,0.454545455 C20.8181818,0.272727273 20.4090909,0.227272727 20.0454545,0.227272727 C19.6818182,0.227272727 19.2727273,0.227272727 18.9090909,0.318181818 L5.04545455,7 C4.36363636,7.31818182 3.86363636,7.90909091 3.68181818,8.68181818 L0.272727273,23.6363636 C0.136363636,24.4090909 0.318181818,25.1818182 0.772727273,25.8181818 L10.3636364,37.6818182 C10.9090909,38.2272727 11.6818182,38.5909091 12.4545455,38.6363636 L27.7272727,38.6363636 C28.5454545,38.7272727 29.3181818,38.3636364 29.8181818,37.6818182 L39.4090909,25.8181818 C39.8636364,25.1818182 40.0454545,24.4090909 39.9545455,23.6363636 L36.5,8.77272727 Z" id="Shape" fill="#326DE6"></path>
                        <path d="M34.3636364,23.0454545 C34.3181818,23.0454545 34.2727273,23.0454545 34.2727273,23 C34.2727273,22.9545455 34.1818182,22.9545455 34.0909091,22.9545455 C33.9090909,22.9090909 33.7272727,22.9090909 33.5454545,22.9090909 C33.4545455,22.9090909 33.3636364,22.9090909 33.2727273,22.8636364 L33.2272727,22.8636364 C32.7272727,22.8181818 32.1818182,22.7272727 31.6818182,22.5909091 C31.5454545,22.5454545 31.4090909,22.4090909 31.3636364,22.2727273 C31.4090909,22.2727273 31.3636364,22.2727273 31.3636364,22.2727273 L31,22.1818182 C31.1818182,20.8636364 31.0909091,19.5 30.8181818,18.1818182 C30.5,16.8636364 29.9545455,15.5909091 29.2272727,14.4545455 L29.5,14.1818182 L29.5,14.1363636 C29.5,14 29.5454545,13.8181818 29.6363636,13.7272727 C30.0454545,13.3636364 30.4545455,13.0909091 30.9090909,12.8181818 C31,12.7727273 31.0909091,12.7272727 31.1818182,12.6818182 C31.3636364,12.5909091 31.5,12.5 31.6818182,12.4090909 C31.7272727,12.3636364 31.7727273,12.3636364 31.8181818,12.3181818 C31.8636364,12.2727273 31.8181818,12.2727273 31.8181818,12.2272727 C32.2272727,11.9090909 32.3181818,11.3636364 32,10.9545455 C31.8636364,10.7727273 31.5909091,10.6363636 31.3636364,10.6363636 C31.1363636,10.6363636 30.9090909,10.7272727 30.7272727,10.8636364 L30.6818182,10.9090909 C30.6363636,10.9545455 30.5909091,11 30.5454545,11 C30.4090909,11.1363636 30.2727273,11.2727273 30.1818182,11.4090909 C30.1363636,11.5 30.0454545,11.5454545 30,11.5909091 C29.6818182,11.9545455 29.2727273,12.3181818 28.8636364,12.5909091 C28.7727273,12.6363636 28.6818182,12.6818182 28.5909091,12.6818182 C28.5454545,12.6818182 28.4545455,12.6818182 28.4090909,12.6363636 L28.3636364,12.6363636 L28,12.8636364 C27.6363636,12.5 27.2272727,12.1363636 26.8636364,11.7727273 C25.1818182,10.4545455 23.0909091,9.63636364 20.9545455,9.40909091 L20.9090909,9.04545455 L20.9090909,9.09090909 C20.7727273,9 20.7272727,8.86363636 20.6818182,8.72727273 C20.6818182,8.22727273 20.6818182,7.72727273 20.7727273,7.18181818 L20.7727273,7.13636364 C20.7727273,7.04545455 20.8181818,6.95454545 20.8181818,6.86363636 C20.8636364,6.68181818 20.8636364,6.5 20.9090909,6.31818182 L20.9090909,6.04545455 C20.9545455,5.59090909 20.5909091,5.13636364 20.1363636,5.09090909 C19.8636364,5.04545455 19.5909091,5.18181818 19.3636364,5.40909091 C19.1818182,5.59090909 19.0909091,5.81818182 19.0909091,6.04545455 L19.0909091,6.27272727 C19.0909091,6.45454545 19.1363636,6.63636364 19.1818182,6.81818182 C19.2272727,6.90909091 19.2272727,7 19.2272727,7.09090909 L19.2272727,7.13636364 C19.3181818,7.63636364 19.3181818,8.13636364 19.3181818,8.68181818 C19.2727273,8.81818182 19.2272727,8.95454545 19.0909091,9.04545455 L19.0909091,9.13636364 L19.0454545,9.5 C18.5454545,9.54545455 18.0454545,9.63636364 17.5,9.72727273 C15.3636364,10.1818182 13.4090909,11.3181818 11.9090909,12.9090909 L11.6363636,12.7272727 L11.5909091,12.7272727 C11.5454545,12.7272727 11.5,12.7727273 11.4090909,12.7727273 C11.3181818,12.7727273 11.2272727,12.7272727 11.1363636,12.6818182 C10.7272727,12.3636364 10.3181818,12 10,11.6363636 C9.95454545,11.5454545 9.86363636,11.5 9.81818182,11.4545455 C9.68181818,11.3181818 9.59090909,11.1818182 9.45454545,11.0454545 C9.40909091,11 9.36363636,11 9.31818182,10.9545455 C9.27272727,10.9090909 9.27272727,10.9090909 9.27272727,10.9090909 C9.09090909,10.7727273 8.86363636,10.6818182 8.63636364,10.6818182 C8.36363636,10.6818182 8.13636364,10.7727273 8,11 C7.72727273,11.4090909 7.81818182,11.9545455 8.18181818,12.2727273 C8.22727273,12.2727273 8.22727273,12.3181818 8.22727273,12.3181818 C8.22727273,12.3181818 8.31818182,12.4090909 8.36363636,12.4090909 C8.5,12.5 8.68181818,12.5909091 8.86363636,12.6818182 C8.95454545,12.7272727 9.04545455,12.7727273 9.13636364,12.8181818 C9.59090909,13.0909091 10.0454545,13.3636364 10.4090909,13.7272727 C10.5,13.8181818 10.5909091,14 10.5454545,14.1363636 L10.5454545,14.0909091 L10.8181818,14.3636364 C10.7727273,14.4545455 10.7272727,14.5 10.6818182,14.5909091 C9.27272727,16.8181818 8.68181818,19.4545455 9.09090909,22.0454545 L8.72727273,22.1363636 C8.72727273,22.1818182 8.68181818,22.1818182 8.68181818,22.1818182 C8.63636364,22.3181818 8.5,22.4090909 8.36363636,22.5 C7.86363636,22.6363636 7.36363636,22.7272727 6.81818182,22.7727273 C6.72727273,22.7727273 6.63636364,22.7727273 6.54545455,22.8181818 C6.36363636,22.8181818 6.18181818,22.8636364 6,22.8636364 C5.95454545,22.8636364 5.90909091,22.9090909 5.81818182,22.9090909 C5.77272727,22.9090909 5.77272727,22.9090909 5.72727273,22.9545455 C5.22727273,23.0454545 4.90909091,23.5 5,24 C5,24 5,24 5,24 C5.09090909,24.4090909 5.5,24.6818182 5.90909091,24.6363636 C6,24.6363636 6.04545455,24.6363636 6.13636364,24.5909091 C6.18181818,24.5909091 6.18181818,24.5909091 6.18181818,24.5454545 C6.18181818,24.5 6.31818182,24.5454545 6.36363636,24.5454545 C6.54545455,24.5 6.72727273,24.4090909 6.86363636,24.3636364 C6.95454545,24.3181818 7.04545455,24.2727273 7.13636364,24.2727273 L7.18181818,24.2727273 C7.68181818,24.0909091 8.13636364,23.9545455 8.68181818,23.8636364 L8.72727273,23.8636364 C8.86363636,23.8636364 9,23.9090909 9.09090909,24 C9.13636364,24 9.13636364,24.0454545 9.13636364,24.0454545 L9.54545455,24 C10.2272727,26.0909091 11.5,27.9545455 13.2727273,29.3181818 C13.6818182,29.6363636 14.0454545,29.9090909 14.5,30.1363636 L14.2727273,30.4545455 C14.2727273,30.5 14.3181818,30.5 14.3181818,30.5 C14.4090909,30.6363636 14.4090909,30.8181818 14.3636364,30.9545455 C14.1818182,31.4090909 13.9090909,31.8636364 13.6363636,32.2727273 L13.6363636,32.3181818 C13.5909091,32.4090909 13.5454545,32.4545455 13.4545455,32.5454545 C13.3636364,32.6363636 13.2727273,32.8181818 13.1363636,33 C13.0909091,33.0454545 13.0909091,33.0909091 13.0454545,33.1363636 C13.0454545,33.1363636 13.0454545,33.1818182 13,33.1818182 C12.7727273,33.6363636 12.9545455,34.1818182 13.3636364,34.4090909 C13.4545455,34.4545455 13.5909091,34.5 13.6818182,34.5 C14.0454545,34.5 14.3636364,34.2727273 14.5454545,33.9545455 C14.5454545,33.9545455 14.5454545,33.9090909 14.5909091,33.9090909 C14.5909091,33.8636364 14.6363636,33.8181818 14.6818182,33.7727273 C14.7272727,33.5909091 14.8181818,33.4545455 14.8636364,33.2727273 L14.9545455,33 C15.0909091,32.5 15.3181818,32.0454545 15.5454545,31.5909091 C15.6363636,31.4545455 15.7727273,31.3636364 15.9090909,31.3181818 C15.9545455,31.3181818 15.9545455,31.3181818 15.9545455,31.2727273 L16.1363636,30.9090909 C17.4090909,31.4090909 18.7272727,31.6363636 20.0909091,31.6363636 C20.9090909,31.6363636 21.7272727,31.5454545 22.5454545,31.3181818 C23.0454545,31.2272727 23.5454545,31.0454545 24,30.9090909 L24.1818182,31.2272727 C24.2272727,31.2272727 24.2272727,31.2272727 24.2272727,31.2727273 C24.3636364,31.3181818 24.5,31.4090909 24.5909091,31.5454545 C24.8181818,32 25.0454545,32.4545455 25.1818182,32.9545455 L25.1818182,33 L25.2727273,33.2727273 C25.3181818,33.4545455 25.3636364,33.6363636 25.4545455,33.7727273 C25.5,33.8181818 25.5,33.8636364 25.5454545,33.9090909 C25.5454545,33.9090909 25.5454545,33.9545455 25.5909091,33.9545455 C25.7727273,34.2727273 26.0909091,34.5 26.4545455,34.5 C26.5909091,34.5 26.6818182,34.4545455 26.8181818,34.4090909 C27,34.3181818 27.1818182,34.1363636 27.2272727,33.9090909 C27.2727273,33.6818182 27.2727273,33.4545455 27.1818182,33.2272727 C27.1818182,33.1818182 27.1363636,33.1818182 27.1363636,33.1818182 C27.1363636,33.1363636 27.0909091,33.0909091 27.0454545,33.0454545 C26.9545455,32.8636364 26.8636364,32.7272727 26.7272727,32.5909091 C26.6818182,32.5 26.6363636,32.4545455 26.5454545,32.3636364 L26.5454545,32.2727273 C26.2272727,31.8636364 26,31.4090909 25.8181818,30.9545455 C25.7727273,30.8181818 25.7727273,30.6363636 25.8636364,30.5 C25.8636364,30.4545455 25.9090909,30.4545455 25.9090909,30.4545455 L25.7727273,30.0909091 C28.0909091,28.6818182 29.8636364,26.5 30.6818182,23.9090909 L31.0454545,23.9545455 C31.0909091,23.9545455 31.0909091,23.9090909 31.0909091,23.9090909 C31.1818182,23.8181818 31.3181818,23.7727273 31.4545455,23.7727273 L31.5,23.7727273 C32,23.8636364 32.5,24 32.9545455,24.1818182 L33,24.1818182 C33.0909091,24.2272727 33.1818182,24.2727273 33.2727273,24.2727273 C33.4545455,24.3636364 33.5909091,24.4545455 33.7727273,24.5 C33.8181818,24.5 33.8636364,24.5454545 33.9545455,24.5454545 C34,24.5454545 34,24.5454545 34.0454545,24.5909091 C34.1363636,24.6363636 34.1818182,24.6363636 34.2727273,24.6363636 C34.6818182,24.6363636 35.0454545,24.3636364 35.1818182,24 C35.1363636,23.5 34.7727273,23.1363636 34.3636364,23.0454545 Z M21.2272727,21.6363636 L20,22.2272727 L18.7727273,21.6363636 L18.4545455,20.3181818 L19.3181818,19.2272727 L20.6818182,19.2272727 L21.5454545,20.3181818 L21.2272727,21.6363636 Z M28.6363636,18.6818182 C28.8636364,19.6363636 28.9090909,20.5909091 28.8181818,21.5454545 L24.5,20.3181818 C24.0909091,20.2272727 23.8636364,19.8181818 23.9545455,19.4090909 C24,19.2727273 24.0454545,19.1818182 24.1363636,19.0909091 L27.5454545,16 C28.0454545,16.8181818 28.4090909,17.7272727 28.6363636,18.6818182 Z M26.1818182,14.3181818 L22.4545455,16.9545455 C22.1363636,17.1363636 21.6818182,17.0909091 21.4545455,16.7727273 C21.3636364,16.6818182 21.3181818,16.5909091 21.3181818,16.4545455 L21.0454545,11.8636364 C23.0454545,12.0909091 24.8181818,12.9545455 26.1818182,14.3181818 Z M17.9545455,12 L18.8636364,11.8181818 L18.6363636,16.3636364 C18.6363636,16.7727273 18.2727273,17.0909091 17.8636364,17.0909091 C17.7272727,17.0909091 17.6363636,17.0454545 17.5,17 L13.7272727,14.3181818 C14.9090909,13.1818182 16.3636364,12.3636364 17.9545455,12 Z M12.4090909,16 L15.7727273,19 C16.0909091,19.2727273 16.1363636,19.7272727 15.8636364,20.0454545 C15.7727273,20.1818182 15.6818182,20.2272727 15.5,20.2727273 L11.0909091,21.5454545 C10.9545455,19.6363636 11.4090909,17.6818182 12.4090909,16 Z M11.6363636,23.6818182 L16.1363636,22.9090909 C16.5,22.9090909 16.8636364,23.1363636 16.9090909,23.5 C16.9545455,23.6363636 16.9545455,23.8181818 16.8636364,23.9545455 L15.1363636,28.1363636 C13.5454545,27.0909091 12.2727273,25.5 11.6363636,23.6818182 Z M21.9545455,29.3181818 C21.3181818,29.4545455 20.6818182,29.5454545 20,29.5454545 C19.0454545,29.5454545 18.0454545,29.3636364 17.1363636,29.0909091 L19.3636364,25.0454545 C19.5909091,24.7727273 19.9545455,24.6818182 20.2727273,24.8636364 C20.4090909,24.9545455 20.5,25.0454545 20.6363636,25.1818182 L22.8181818,29.1363636 C22.5454545,29.1818182 22.2727273,29.2272727 21.9545455,29.3181818 Z M27.5,25.3636364 C26.8181818,26.4545455 25.8636364,27.4090909 24.7727273,28.0909091 L23,23.8181818 C22.9090909,23.4545455 23.0909091,23.0909091 23.4090909,22.9545455 C23.5454545,22.9090909 23.6818182,22.8636364 23.8181818,22.8636364 L28.3636364,23.6363636 C28.1363636,24.2727273 27.8636364,24.8636364 27.5,25.3636364 Z" id="Shape" fill="#FFFFFF"></path>
                    </g>
                </g>
            </g>
        </g>
    </g>
</svg>