<?xml version="1.0" encoding="UTF-8" standalone="no"?>
<svg width="39px" height="40px" viewBox="0 0 39 40" version="1.1" xmlns="http://www.w3.org/2000/svg" xmlns:xlink="http://www.w3.org/1999/xlink">
    <!-- Generator: Sketch 49 (51002) - http://www.bohemiancoding.com/sketch -->
    <title>database (1)</title>
    <desc>Created with Sketch.</desc>
    <defs></defs>
    <g id="首页" stroke="none" stroke-width="1" fill="none" fill-rule="evenodd">
        <g transform="translate(-750.000000, -376.000000)" fill-rule="nonzero" id="快速入门">
            <g transform="translate(200.000000, 328.000000)">
                <g id="Group" transform="translate(529.333333, 32.000000)">
                    <g id="database-(1)" transform="translate(21.000000, 16.000000)">
                        <g id="database-(2)">
                            <path d="M1.638,24.263318 C0.588445312,24.7973849 0,25.3910753 0,26.0177573 C0,28.3434686 8.05900781,30.2284435 18,30.2284435 C27.9409922,30.2284435 36,28.3434686 36,26.0177573 C36,25.3910753 35.4115547,24.7973849 34.362,24.263318 C31.5173672,25.7124854 25.2620859,26.7194854 18,26.7194854 C10.7379141,26.7194854 4.48263281,25.7124854 1.638,24.263318 Z" id="Shape" fill="#396BD7"></path>
                            <path d="M18,30.228364 C8.05900781,30.228364 0,28.3433891 0,26.0176778 L0,33.7371632 C0,36.0628745 8.05900781,37.9478494 18,37.9478494 C27.9409922,37.9478494 36,36.0628745 36,33.7371632 L36,26.0176778 C36,28.3433891 27.9409922,30.228364 18,30.228364 Z" id="Shape" fill="#4B87EA"></path>
                            <path d="M1.638,13.034954 C0.588445312,13.5689414 0,14.1626318 0,14.7893138 C0,17.1150251 8.05900781,19 18,19 C27.9409922,19 36,17.1150251 36,14.7893138 C36,14.1626318 35.4115547,13.5689414 34.362,13.0348745 C31.5173672,14.4840418 25.2620859,15.4911213 18,15.4911213 C10.7379141,15.4911213 4.48263281,14.4840418 1.638,13.034954 Z" id="Shape" fill="#396BD7"></path>
                            <g id="Group" transform="translate(0.000000, 3.497908)" fill="#4B87EA">
                                <path d="M18,4.27372803 C8.05900781,4.27372803 0,2.38875314 0,0.063041841 L0,7.7825272 C0,8.40920921 0.589007813,9.00289958 1.638,9.53696653 C4.48263281,10.9861339 10.7379141,11.9932134 18,11.9932134 C25.2620859,11.9932134 31.5173672,10.9861339 34.362,9.53696653 C35.4109922,9.00297908 36,8.4092887 36,7.78260669 L36,0.063041841 C36,2.38875314 27.9409922,4.27372803 18,4.27372803 Z" id="Shape"></path>
                                <path d="M18,15.5020921 C8.05900781,15.5020921 0,13.6171172 0,11.2914059 L0,19.0108912 C0,19.6375732 0.589007813,20.2312636 1.638,20.7653305 C4.48263281,22.2145774 10.7379141,23.2215774 18,23.2215774 C25.2620859,23.2215774 31.5173672,22.2144979 34.362,20.7653305 C35.4109922,20.2313431 36,19.6376527 36,19.0109707 L36,11.2914059 C36,13.6171172 27.9409922,15.5020921 18,15.5020921 Z" id="Shape"></path>
                            </g>
                            <path d="M18,0.0520711297 C8.05900781,0.0520711297 0,1.23523849 0,3.56094979 C0,5.88666109 8.05900781,7.77163598 18,7.77163598 C27.9409922,7.77163598 36,5.88666109 36,3.56094979 C36,1.23523849 27.9409922,0.0520711297 18,0.0520711297 Z" id="Shape" fill="#7DBFFF"></path>
                            <g id="Group" transform="translate(15.468750, 10.573222)" fill="#EFEFEF">
                                <path d="M0.669164062,0.00548535565 L4.39333594,0.00548535565 C4.73596875,0.00548535565 5.01405469,0.319899582 5.01405469,0.707292887 C5.01405469,1.09468619 4.73596875,1.40910042 4.39333594,1.40910042 L0.669164062,1.40910042 C0.32653125,1.40910042 0.0484453125,1.09468619 0.0484453125,0.707292887 C0.048515625,0.319899582 0.32653125,0.00548535565 0.669164062,0.00548535565 Z" id="Shape"></path>
                                <path d="M0.669164062,11.2338494 L4.39333594,11.2338494 C4.73596875,11.2338494 5.01405469,11.5482636 5.01405469,11.9356569 C5.01405469,12.3230502 4.73596875,12.6374644 4.39333594,12.6374644 L0.669164062,12.6374644 C0.32653125,12.6374644 0.0484453125,12.3230502 0.0484453125,11.9356569 C0.048515625,11.5482636 0.32653125,11.2338494 0.669164062,11.2338494 Z" id="Shape"></path>
                                <path d="M0.669164062,22.4622929 L4.39333594,22.4622929 C4.73596875,22.4622929 5.01405469,22.7767071 5.01405469,23.1641004 C5.01405469,23.5514937 4.73596875,23.8659079 4.39333594,23.8659079 L0.669164062,23.8659079 C0.32653125,23.8659079 0.0484453125,23.5514937 0.0484453125,23.1641004 C0.048515625,22.7767071 0.32653125,22.4622929 0.669164062,22.4622929 Z" id="Shape"></path>
                            </g>
                        </g>
                        <g id="Group" transform="translate(19.636364, 21.090909)">
                            <polygon id="Shape" fill="#EDDCC7" points="3.04872727 11.992 3.04290909 11.9970909 1.59709091 17.2989091 4.97672727 13.9192727"></polygon>
                            <path d="M17.0487273,1.84727273 L16.1418182,0.940363636 C15.5781818,0.376727273 14.664,0.376727273 14.1003636,0.940363636 L11.4952727,3.54545455 L13.4232727,5.47345455 L17.0487273,1.84727273 Z" id="Shape" fill="#D75A4A"></path>
                            <rect id="Rectangle-path" fill="#F29C21" transform="translate(8.236076, 8.732221) rotate(45.000000) translate(-8.236076, -8.732221) " x="6.87281616" y="2.75991448" width="2.72651931" height="11.9446127"></rect>
                            <polygon id="Shape" fill="#D6C4B1" points="7.15709091 16.1112727 7.16290909 16.1054545 4.97672727 13.9192727 1.59709091 17.2989091 1.50036364 17.6538182"></polygon>
                            <path d="M15.6087273,7.65963636 L18.2138182,5.05454545 C18.7774545,4.49090909 18.7774545,3.57672727 18.2138182,3.01309091 L17.0487273,1.848 L13.4232727,5.47345455 L15.6087273,7.65963636 Z" id="Shape" fill="#A34740"></path>
                            <rect id="Rectangle-path" fill="#E18C25" transform="translate(10.292142, 10.790065) rotate(-135.000000) translate(-10.292142, -10.790065) " x="8.74633901" y="4.81775818" width="3.09160671" height="11.9446127"></rect>
                            <path d="M0.986181818,18.8952727 C0.8,18.8952727 0.613818182,18.824 0.472,18.6821818 C0.187636364,18.3978182 0.187636364,17.9381818 0.472,17.6538182 L2.07709091,16.0487273 C2.36145455,15.7643636 2.82109091,15.7643636 3.10545455,16.0487273 C3.38981818,16.3330909 3.38981818,16.7927273 3.10545455,17.0770909 L1.50036364,18.6821818 C1.35854545,18.8247273 1.17236364,18.8952727 0.986181818,18.8952727 Z" id="Shape" fill="#5E5E5E"></path>
                        </g>
                    </g>
                </g>
            </g>
        </g>
    </g>
</svg>