<?xml version="1.0" encoding="UTF-8" standalone="no"?>
<svg width="49px" height="40px" viewBox="0 0 49 40" version="1.1" xmlns="http://www.w3.org/2000/svg" xmlns:xlink="http://www.w3.org/1999/xlink">
    <!-- Generator: Sketch 49 (51002) - http://www.bohemiancoding.com/sketch -->
    <title>开发流水线</title>
    <desc>Created with Sketch.</desc>
    <defs></defs>
    <g id="首页" stroke="none" stroke-width="1" fill="none" fill-rule="evenodd">
        <g transform="translate(-484.000000, -644.000000)" fill-rule="nonzero" id="主要功能">
            <g transform="translate(200.000000, 596.000000)">
                <g id="Group" transform="translate(264.666667, 32.000000)">
                    <g id="开发流水线" transform="translate(20.000000, 16.000000)">
                        <path d="M0,5.2173913 L47.826087,5.2173913 L47.826087,40 L2.60869565,40 C1.16793478,40 0,38.8320652 0,37.3913043 L0,5.2173913 Z" id="Shape" fill="#E6E6E6"></path>
                        <g id="Group-9" transform="translate(30.000000, 22.000000)">
                            <circle id="Oval" fill="#D78017" cx="7" cy="7" r="7"></circle>
                            <g id="Group" transform="translate(1.000000, 2.000000)" fill="#FFFFFF">
                                <polygon id="Shape" points="3.03392775 7.74015285 0.0172382259 4.88447972 3.03392775 2.03733098 3.9303155 2.9664903 1.89620485 4.88447972 3.9303155 6.81099353"></polygon>
                                <polygon id="Shape" points="9.37759488 7.74015285 8.48120713 6.81099353 10.5153178 4.88447972 8.48120713 2.9664903 9.37759488 2.03733098 12.3942844 4.88447972"></polygon>
                                <rect id="Rectangle-path" transform="translate(6.205533, 4.885953) rotate(-158.419895) translate(-6.205533, -4.885953) " x="5.55909644" y="-0.0405284322" width="1.29286103" height="9.85407308"></rect>
                            </g>
                        </g>
                        <g id="Group" fill="#396BD7">
                            <path d="M0,37.3913043 C0,35.9505435 1.16793478,34.7826087 2.60869565,34.7826087 L5.2173913,34.7826087 L5.2173913,0 L2.60869565,0 C1.16793478,0 0,1.16793478 0,2.60869565 L0,37.3913043 Z" id="Shape"></path>
                            <polygon id="Shape" points="13.9130435 20.8695652 20 20.8695652 20 22.6086957 13.9130435 22.6086957"></polygon>
                            <polygon id="Shape" points="11.3043478 13.9130435 13.0434783 13.9130435 13.0434783 20 11.3043478 20"></polygon>
                            <polygon id="Shape" points="13.9130435 11.3043478 20 11.3043478 20 13.0434783 13.9130435 13.0434783"></polygon>
                        </g>
                        <g id="Group" transform="translate(8.695652, 27.826087)" fill="#999999">
                            <polygon id="Shape" points="0 3.47826087 12.173913 3.47826087 12.173913 5.2173913 0 5.2173913"></polygon>
                            <polygon id="Shape" points="0 6.95652174 12.173913 6.95652174 12.173913 8.69565217 0 8.69565217"></polygon>
                            <polygon id="Shape" points="3.47826087 0 12.173913 0 12.173913 1.73913043 3.47826087 1.73913043"></polygon>
                            <polygon id="Shape" points="0 0 1.73913043 0 1.73913043 1.73913043 0 1.73913043"></polygon>
                        </g>
                        <g id="Group" transform="translate(9.565217, 9.565217)" fill="#679CEF">
                            <polygon id="Shape" points="0 0 5.2173913 0 5.2173913 5.2173913 0 5.2173913"></polygon>
                            <polygon id="Shape" points="9.56521739 0 18.2608696 0 18.2608696 5.2173913 9.56521739 5.2173913"></polygon>
                            <polygon id="Shape" points="0 9.56521739 5.2173913 9.56521739 5.2173913 14.7826087 0 14.7826087"></polygon>
                            <polygon id="Shape" points="9.56521739 9.56521739 18.2608696 9.56521739 18.2608696 14.7826087 9.56521739 14.7826087"></polygon>
                        </g>
                    </g>
                </g>
            </g>
        </g>
    </g>
</svg>