<?xml version="1.0" encoding="UTF-8" standalone="no"?>
<svg width="40px" height="37px" viewBox="0 0 40 37" version="1.1" xmlns="http://www.w3.org/2000/svg" xmlns:xlink="http://www.w3.org/1999/xlink">
    <!-- Generator: Sketch 49 (51002) - http://www.bohemiancoding.com/sketch -->
    <title>gitlab</title>
    <desc>Created with Sketch.</desc>
    <defs></defs>
    <g id="首页" stroke="none" stroke-width="1" fill="none" fill-rule="evenodd">
        <g transform="translate(-220.000000, -1182.000000)" fill-rule="nonzero" id="安装与配置">
            <g transform="translate(200.000000, 1132.000000)">
                <g id="Group" transform="translate(0.000000, 32.000000)">
                    <g id="gitlab" transform="translate(20.000000, 18.000000)">
                        <polygon id="Shape" fill="#E24329" points="19.9890027 36.7795148 27.3219407 14.2111051 12.6566038 14.2111051 19.9892183 36.7795148"></polygon>
                        <polygon id="Shape" fill="#FC6D26" points="19.9890027 36.7795148 12.6560647 14.2111051 2.37897574 14.2111051 19.9892183 36.7792992"></polygon>
                        <path d="M2.37908356,14.2111051 L0.150512129,21.0693261 C-0.0526145553,21.6949865 0.169919137,22.3803774 0.702210243,22.7667925 L19.9890027,36.7795148 L2.37908356,14.2109973 L2.37908356,14.2111051 Z" id="Shape" fill="#FCA326"></path>
                        <path d="M2.37908356,14.2111051 L12.6561725,14.2111051 L8.2393531,0.618328841 C8.01218329,-0.0810781671 7.02274933,-0.0810781671 6.79568733,0.618328841 L2.37897574,14.2111051 L2.37908356,14.2111051 Z" id="Shape" fill="#E24329"></path>
                        <polygon id="Shape" fill="#FC6D26" points="19.9890027 36.7795148 27.3219407 14.2111051 37.5990296 14.2111051 19.9892183 36.7792992"></polygon>
                        <path d="M37.5989218,14.2111051 L39.8274933,21.0693261 C40.0306199,21.6949865 39.8080863,22.3803774 39.2757951,22.7667925 L19.9890027,36.7795148 L37.5989218,14.2109973 L37.5989218,14.2111051 Z" id="Shape" fill="#FCA326"></path>
                        <path d="M37.5989218,14.2111051 L27.3218329,14.2111051 L31.7386523,0.618328841 C31.9659299,-0.0810781671 32.9553639,-0.0810781671 33.1825337,0.618328841 L37.5990296,14.2111051 L37.5989218,14.2111051 Z" id="Shape" fill="#E24329"></path>
                    </g>
                </g>
            </g>
        </g>
    </g>
</svg>