<?xml version="1.0" encoding="UTF-8" standalone="no"?>
<svg width="49px" height="40px" viewBox="0 0 49 40" version="1.1" xmlns="http://www.w3.org/2000/svg" xmlns:xlink="http://www.w3.org/1999/xlink">
    <!-- Generator: Sketch 49 (51002) - http://www.bohemiancoding.com/sketch -->
    <title>部署流水线</title>
    <desc>Created with Sketch.</desc>
    <defs></defs>
    <g id="首页" stroke="none" stroke-width="1" fill="none" fill-rule="evenodd">
        <g transform="translate(-749.000000, -644.000000)" id="主要功能">
            <g transform="translate(200.000000, 596.000000)">
                <g id="Group" transform="translate(529.333333, 32.000000)">
                    <g id="部署流水线" transform="translate(20.000000, 16.000000)">
                        <path d="M0,5.2173913 L47.826087,5.2173913 L47.826087,40 L2.60869565,40 C1.16793478,40 0,38.8320652 0,37.3913043 L0,5.2173913 Z" id="Shape" fill="#E6E6E6" fill-rule="nonzero"></path>
                        <g id="ic_cloud_upload_black_24px" transform="translate(30.000000, 22.000000)">
                            <polygon id="Shape" points="0 0 14 0 14 14 0 14"></polygon>
                            <path d="M11.2875,5.85666667 C10.8908333,3.84416667 9.12333333,2.33333333 7,2.33333333 C5.31416667,2.33333333 3.85,3.29 3.12083333,4.69 C1.365,4.87666667 0,6.36416667 0,8.16666667 C0,10.0975 1.56916667,11.6666667 3.5,11.6666667 L11.0833333,11.6666667 C12.6933333,11.6666667 14,10.36 14,8.75 C14,7.21 12.8041667,5.96166667 11.2875,5.85666667 Z M8.16666667,7.58333333 L8.16666667,9.91666667 L5.83333333,9.91666667 L5.83333333,7.58333333 L4.08333333,7.58333333 L7,4.66666667 L9.91666667,7.58333333 L8.16666667,7.58333333 Z" id="Shape" fill="#D78017" fill-rule="nonzero"></path>
                        </g>
                        <g id="Group" fill="#396BD7" fill-rule="nonzero">
                            <path d="M0,37.3913043 C0,35.9505435 1.16793478,34.7826087 2.60869565,34.7826087 L5.2173913,34.7826087 L5.2173913,0 L2.60869565,0 C1.16793478,0 0,1.16793478 0,2.60869565 L0,37.3913043 Z" id="Shape"></path>
                            <polygon id="Shape" points="13.9130435 20.8695652 20 20.8695652 20 22.6086957 13.9130435 22.6086957"></polygon>
                            <polygon id="Shape" points="11.3043478 13.9130435 13.0434783 13.9130435 13.0434783 20 11.3043478 20"></polygon>
                            <polygon id="Shape" points="13.9130435 11.3043478 20 11.3043478 20 13.0434783 13.9130435 13.0434783"></polygon>
                        </g>
                        <g id="Group" transform="translate(8.695652, 27.826087)" fill="#999999" fill-rule="nonzero">
                            <polygon id="Shape" points="0 3.47826087 12.173913 3.47826087 12.173913 5.2173913 0 5.2173913"></polygon>
                            <polygon id="Shape" points="0 6.95652174 12.173913 6.95652174 12.173913 8.69565217 0 8.69565217"></polygon>
                            <polygon id="Shape" points="3.47826087 0 12.173913 0 12.173913 1.73913043 3.47826087 1.73913043"></polygon>
                            <polygon id="Shape" points="0 0 1.73913043 0 1.73913043 1.73913043 0 1.73913043"></polygon>
                        </g>
                        <g id="Group" transform="translate(9.565217, 9.565217)" fill="#679CEF" fill-rule="nonzero">
                            <polygon id="Shape" points="0 0 5.2173913 0 5.2173913 5.2173913 0 5.2173913"></polygon>
                            <polygon id="Shape" points="9.56521739 0 18.2608696 0 18.2608696 5.2173913 9.56521739 5.2173913"></polygon>
                            <polygon id="Shape" points="0 9.56521739 5.2173913 9.56521739 5.2173913 14.7826087 0 14.7826087"></polygon>
                            <polygon id="Shape" points="9.56521739 9.56521739 18.2608696 9.56521739 18.2608696 14.7826087 9.56521739 14.7826087"></polygon>
                        </g>
                    </g>
                </g>
            </g>
        </g>
    </g>
</svg>