<?xml version="1.0" encoding="UTF-8" standalone="no"?>
<svg width="40px" height="33px" viewBox="0 0 40 33" version="1.1" xmlns="http://www.w3.org/2000/svg" xmlns:xlink="http://www.w3.org/1999/xlink">
    <!-- Generator: Sketch 49 (51002) - http://www.bohemiancoding.com/sketch -->
    <title>browser (1)</title>
    <desc>Created with Sketch.</desc>
    <defs></defs>
    <g id="首页" stroke="none" stroke-width="1" fill="none" fill-rule="evenodd">
        <g transform="translate(-220.000000, -380.000000)" fill-rule="nonzero" id="快速入门">
            <g transform="translate(200.000000, 328.000000)">
                <g id="Group" transform="translate(0.000000, 32.000000)">
                    <g id="browser-(1)" transform="translate(20.000000, 20.000000)">
                        <path d="M38.6628895,0 L1.22379603,0 C0.543909348,0 0,0.543909348 0,1.22379603 L0,28.3286119 C0,29.0084986 0.543909348,29.5524079 1.22379603,29.5524079 L38.7082153,29.5524079 C39.388102,29.5524079 39.9320113,29.0084986 39.9320113,28.3286119 L39.9320113,1.22379603 C39.9320113,0.543909348 39.3427762,0 38.6628895,0 Z" id="Shape" fill="#324A5E"></path>
                        <g id="browser">
                            <path d="M37.8679365,32.6614533 L2.13206349,32.6614533 C0.968095238,32.6614533 0.0244444444,31.7930727 0.0244444444,30.721622 L0.0244444444,2.09618054 C0.0244444444,1.02487589 0.967936508,0.156349206 2.13206349,0.156349206 L37.8674603,0.156349206 C39.0314286,0.156349206 39.9750794,1.02472979 39.9750794,2.09618054 L39.9750794,30.7213298 C39.9753968,31.7927805 39.0315873,32.6614533 37.8679365,32.6614533 Z" id="Shape" fill="#A9A9A9"></path>
                            <path d="M39.9753968,5.61031746 L0.0246031746,5.61031746 L0.0246031746,2.26396825 C0.0246031746,1.1 0.968095238,0.156349206 2.13222222,0.156349206 L37.867619,0.156349206 C39.0315873,0.156349206 39.9752381,1.09984127 39.9752381,2.26396825 L39.9753968,5.61031746 Z" id="Shape" fill="#A9A9A9"></path>
                            <path d="M39.9755556,5.61031746 L0.0249205549,5.61031746 L0.0249205549,32.6611611 L35.7743554,32.6611611 C38.0945392,32.6611611 39.9755556,30.937664 39.9755556,28.8111284 L39.9755556,5.61031746 Z" id="Shape" fill="#396BD7"></path>
                            <g id="Group" transform="translate(2.698413, 1.904762)" fill="#FFFFFF">
                                <circle id="Oval" cx="0.935396825" cy="0.905079365" r="1"></circle>
                                <circle id="Oval" cx="4.4515873" cy="0.905079365" r="1"></circle>
                            </g>
                        </g>
                        <g id="Group" transform="translate(28.668555, 2.266289)" fill="#ACB3BA">
                            <circle id="Oval" cx="8.63456091" cy="1.24645892" r="1.17847025"></circle>
                            <circle id="Oval" cx="4.91784703" cy="1.24645892" r="1.17847025"></circle>
                            <circle id="Oval" cx="1.24645892" cy="1.24645892" r="1.17847025"></circle>
                        </g>
                        <rect id="Rectangle-path" fill="#FFFFFF" x="1" y="7" width="38" height="23.0028329"></rect>
                        <g id="Group-7" transform="translate(9.000000, 9.000000)">
                            <g id="admin">
                                <path d="M10.9317599,6.5 C10.9317599,6.33758553 10.9236349,6.17709539 10.9078125,6.01882895 C10.8865164,5.80526974 10.9690066,5.59449013 11.1334737,5.45657895 L11.9792434,4.74730921 C12.2180757,4.54700658 12.2786283,4.20400329 12.1227566,3.93403947 L11.3410888,2.58024342 C11.1851743,2.31027961 10.8579507,2.19122697 10.565023,2.29787829 L9.52784539,2.67569079 C9.32591776,2.74924342 9.10188158,2.71511842 8.92749342,2.58952303 C8.66783553,2.40243421 8.38880592,2.24061842 8.09403947,2.10753947 C7.89861184,2.01927632 7.75766447,1.84253618 7.72041776,1.63132895 L7.52926645,0.545230263 C7.47521382,0.238190789 7.2085,0.0142828947 6.89667105,0.0142828947 L5.33346382,0.0142828947 C5.02172039,0.0142828947 4.75500658,0.238148026 4.70086842,0.545230263 L4.50971711,1.63132895 C4.47255592,1.84253618 4.33160855,2.01931908 4.13609539,2.10753947 C3.84128618,2.24061842 3.56225658,2.40243421 3.30264145,2.58952303 C3.12829605,2.71516118 2.90425987,2.74928618 2.70228947,2.67569079 L1.66511184,2.29787829 C1.37214145,2.19114145 1.04491776,2.31019408 0.889046053,2.58024342 L0.107378289,3.93403947 C-0.0485361842,4.20400329 0.0119736842,4.54700658 0.250891447,4.74730921 L1.09666118,5.45657895 C1.26112829,5.59449013 1.34361842,5.80518421 1.32232237,6.01882895 C1.30654276,6.17709539 1.298375,6.33758553 1.298375,6.5 C1.298375,6.66356908 1.30662829,6.82525658 1.32262171,6.98454934 C1.34413158,7.19870724 1.26129934,7.40991447 1.0960625,7.54791118 L0.252259868,8.25281908 C0.0126578947,8.45295066 -0.0482796053,8.79650987 0.107763158,9.06690132 L0.888361842,10.4189013 C1.04449013,10.6892928 1.37239803,10.8083026 1.66558224,10.7007961 L2.69797039,10.3224704 C2.90032566,10.2483191 3.12504605,10.2823586 3.29981908,10.4085099 C3.56114474,10.5970954 3.84209868,10.7601513 4.13904605,10.8938717 C4.33507237,10.9821776 4.47631908,11.1596447 4.51318092,11.3714079 L4.70155263,12.4535296 C4.75509211,12.7611678 5.02210526,12.9856316 5.33427632,12.9856316 L6.89543092,12.9856316 C7.20764474,12.9856316 7.47465789,12.7610822 7.52815461,12.4535296 L7.71652632,11.3714079 C7.75338816,11.159602 7.89463487,10.9821776 8.09066118,10.8938717 C8.38769408,10.7600658 8.66860526,10.5970954 8.92988816,10.4085099 C9.10461842,10.2823586 9.32938158,10.2483191 9.53173684,10.3224704 L10.564125,10.7007961 C10.8573092,10.8082171 11.1852171,10.6892928 11.3413454,10.4189013 L12.1219441,9.06690132 C12.2780724,8.79650987 12.2171349,8.45303618 11.9774474,8.25281908 L11.1336447,7.54791118 C10.9684934,7.40991447 10.8856612,7.19870724 10.9070855,6.98454934 C10.9235066,6.82525658 10.9317599,6.66356908 10.9317599,6.5 Z" id="Shape" fill="#427FED"></path>
                                <path d="M5.30673684,12.9857171 L6.92361184,12.9857171 C7.28483224,12.9857171 7.57763158,12.6929178 7.57763158,12.3316974 L7.57763158,9.11650658 C7.57763158,9.0650625 7.53589474,9.02324013 7.48436513,9.02324013 L4.74589803,9.02324013 C4.69445395,9.02324013 4.65263158,9.06497697 4.65263158,9.11650658 L4.65263158,12.3316974 C4.65267434,12.692875 4.94551645,12.9857171 5.30673684,12.9857171 Z" id="Shape" fill="#427FED"></path>
                                <path d="M7.59631908,3.40552961 L7.59631908,6.33617434 L6.10200329,6.92254276 L4.60777303,6.33617434 L4.60777303,3.41895724 C3.55964803,3.9641875 2.84327961,5.0594375 2.84327961,6.32261842 C2.84327961,8.12961842 4.30817434,9.59442763 6.11508882,9.59442763 C7.92208882,9.59442763 9.38689803,8.12953289 9.38689803,6.32261842 C9.38694079,5.04896053 8.65868421,3.94605592 7.59631908,3.40552961 Z" id="Shape" fill="#F5F5F5"></path>
                            </g>
                            <g id="admin" transform="translate(11.000000, 11.000000)">
                                <path d="M7.15062937,4 C7.15062937,3.90005263 7.14531469,3.80128947 7.13496503,3.70389474 C7.12103497,3.57247368 7.17499301,3.44276316 7.28257343,3.35789474 L7.8358042,2.92142105 C7.99202797,2.79815789 8.03163636,2.58707895 7.92967832,2.42094737 L7.41837762,1.58784211 C7.31639161,1.42171053 7.10234965,1.34844737 6.91074126,1.41407895 L6.23230769,1.64657895 C6.10022378,1.69184211 5.95367832,1.67084211 5.83960839,1.59355263 C5.66976224,1.47842105 5.48724476,1.37884211 5.29443357,1.29694737 C5.1666014,1.24263158 5.07440559,1.13386842 5.05004196,1.00389474 L4.92500699,0.335526316 C4.88965035,0.146578947 4.71518881,0.00878947368 4.51121678,0.00878947368 L3.4886993,0.00878947368 C3.28478322,0.00878947368 3.11032168,0.146552632 3.07490909,0.335526316 L2.94987413,1.00389474 C2.92556643,1.13386842 2.83337063,1.24265789 2.70548252,1.29694737 C2.51264336,1.37884211 2.33012587,1.47842105 2.16030769,1.59355263 C2.04626573,1.67086842 1.89972028,1.69186842 1.76760839,1.64657895 L1.08917483,1.41407895 C0.897538462,1.34839474 0.683496503,1.42165789 0.581538462,1.58784211 L0.0702377622,2.42094737 C-0.0317482517,2.58707895 0.00783216783,2.79815789 0.164111888,2.92142105 L0.717342657,3.35789474 C0.824923077,3.44276316 0.878881119,3.57242105 0.864951049,3.70389474 C0.854629371,3.80128947 0.849286713,3.90005263 0.849286713,4 C0.849286713,4.10065789 0.854685315,4.20015789 0.865146853,4.29818421 C0.879216783,4.42997368 0.825034965,4.55994737 0.716951049,4.64486842 L0.165006993,5.07865789 C0.00827972028,5.20181579 -0.0315804196,5.41323684 0.0704895105,5.57963158 L0.581090909,6.41163158 C0.683216783,6.57802632 0.897706294,6.65126316 1.08948252,6.58510526 L1.76478322,6.35228947 C1.89714685,6.30665789 2.04413986,6.32760526 2.15846154,6.40523684 C2.3293986,6.52128947 2.51317483,6.62163158 2.70741259,6.70392105 C2.83563636,6.75826316 2.92802797,6.86747368 2.95213986,6.99778947 L3.07535664,7.66371053 C3.11037762,7.85302632 3.28503497,7.99115789 3.48923077,7.99115789 L4.51040559,7.99115789 C4.71462937,7.99115789 4.88928671,7.85297368 4.92427972,7.66371053 L5.0474965,6.99778947 C5.07160839,6.86744737 5.164,6.75826316 5.29222378,6.70392105 C5.48651748,6.62157895 5.67026573,6.52128947 5.84117483,6.40523684 C5.95546853,6.32760526 6.10248951,6.30665789 6.23485315,6.35228947 L6.91015385,6.58510526 C7.10193007,6.65121053 7.31641958,6.57802632 7.41854545,6.41163158 L7.92914685,5.57963158 C8.03127273,5.41323684 7.99141259,5.20186842 7.83462937,5.07865789 L7.28268531,4.64486842 C7.17465734,4.55994737 7.12047552,4.42997368 7.13448951,4.29818421 C7.14523077,4.20015789 7.15062937,4.10065789 7.15062937,4 Z" id="Shape" fill="#DD4B39"></path>
                                <path d="M3.47121678,7.99121053 L4.52883916,7.99121053 C4.76511888,7.99121053 4.95664336,7.81102632 4.95664336,7.58873684 L4.95664336,5.61015789 C4.95664336,5.5785 4.92934266,5.55276316 4.89563636,5.55276316 L3.10436364,5.55276316 C3.07071329,5.55276316 3.04335664,5.57844737 3.04335664,5.61015789 L3.04335664,7.58873684 C3.04338462,7.811 3.23493706,7.99121053 3.47121678,7.99121053 Z" id="Shape" fill="#DD4B39"></path>
                                <path d="M4.96886713,2.09571053 L4.96886713,3.89918421 L3.99141259,4.26002632 L3.01401399,3.89918421 L3.01401399,2.10397368 C2.32841958,2.4395 1.85983217,3.1135 1.85983217,3.89084211 C1.85983217,5.00284211 2.81804196,5.90426316 3.99997203,5.90426316 C5.18195804,5.90426316 6.14011189,5.00278947 6.14011189,3.89084211 C6.14013986,3.10705263 5.66377622,2.42834211 4.96886713,2.09571053 Z" id="Shape" fill="#F5F5F5"></path>
                            </g>
                            <g id="admin" transform="translate(14.000000, 3.000000)">
                                <path d="M5.36297203,3 C5.36297203,2.92503947 5.35898601,2.85096711 5.35122378,2.77792105 C5.34077622,2.67935526 5.38124476,2.58207237 5.46193007,2.51842105 L5.87685315,2.19106579 C5.99402098,2.09861842 6.02372727,1.94030921 5.94725874,1.81571053 L5.56378322,1.19088158 C5.48729371,1.06628289 5.32676224,1.01133553 5.18305594,1.06055921 L4.67423077,1.23493421 C4.57516783,1.26888158 4.46525874,1.25313158 4.37970629,1.19516447 C4.25232168,1.10881579 4.11543357,1.03413158 3.97082517,0.972710526 C3.87495105,0.931973684 3.8058042,0.850401316 3.78753147,0.752921053 L3.69375524,0.251644737 C3.66723776,0.109934211 3.53639161,0.00659210526 3.38341259,0.00659210526 L2.61652448,0.00659210526 C2.46358741,0.00659210526 2.33274126,0.109914474 2.30618182,0.251644737 L2.21240559,0.752921053 C2.19417483,0.850401316 2.12502797,0.931993421 2.02911189,0.972710526 C1.88448252,1.03413158 1.74759441,1.10881579 1.62023077,1.19516447 C1.5346993,1.25315132 1.42479021,1.26890132 1.32570629,1.23493421 L0.816881119,1.06055921 C0.673153846,1.01129605 0.512622378,1.06624342 0.436153846,1.19088158 L0.0526783217,1.81571053 C-0.0238111888,1.94030921 0.00587412587,2.09861842 0.123083916,2.19106579 L0.538006993,2.51842105 C0.618692308,2.58207237 0.659160839,2.67931579 0.648713287,2.77792105 C0.640972028,2.85096711 0.636965035,2.92503947 0.636965035,3 C0.636965035,3.07549342 0.641013986,3.15011842 0.64886014,3.22363816 C0.659412587,3.32248026 0.618776224,3.41996053 0.537713287,3.48365132 L0.123755245,3.80899342 C0.00620979021,3.90136184 -0.0236853147,4.05992763 0.0528671329,4.18472368 L0.435818182,4.80872368 C0.512412587,4.93351974 0.67327972,4.98844737 0.817111888,4.93882895 L1.32358741,4.76421711 C1.42286014,4.72999342 1.5331049,4.74570395 1.61884615,4.80392763 C1.74704895,4.89096711 1.88488112,4.96622368 2.03055944,5.02794079 C2.12672727,5.06869737 2.19602098,5.15060526 2.2141049,5.24834211 L2.30651748,5.74778289 C2.33278322,5.88976974 2.46377622,5.99336842 2.61692308,5.99336842 L3.3828042,5.99336842 C3.53597203,5.99336842 3.66696503,5.88973026 3.69320979,5.74778289 L3.78562238,5.24834211 C3.80370629,5.15058553 3.873,5.06869737 3.96916783,5.02794079 C4.11488811,4.96618421 4.2526993,4.89096711 4.38088112,4.80392763 C4.4666014,4.74570395 4.57686713,4.72999342 4.67613986,4.76421711 L5.18261538,4.93882895 C5.32644755,4.98840789 5.48731469,4.93351974 5.56390909,4.80872368 L5.94686014,4.18472368 C6.02345455,4.05992763 5.99355944,3.90140132 5.87597203,3.80899342 L5.46201399,3.48365132 C5.38099301,3.41996053 5.34035664,3.32248026 5.35086713,3.22363816 C5.35892308,3.15011842 5.36297203,3.07549342 5.36297203,3 Z" id="Shape" fill="#FFBB1B"></path>
                                <path d="M2.60341259,5.99340789 L3.39662937,5.99340789 C3.57383916,5.99340789 3.71748252,5.85826974 3.71748252,5.69155263 L3.71748252,4.20761842 C3.71748252,4.183875 3.69700699,4.16457237 3.67172727,4.16457237 L2.32827273,4.16457237 C2.30303497,4.16457237 2.28251748,4.18383553 2.28251748,4.20761842 L2.28251748,5.69155263 C2.28253846,5.85825 2.4262028,5.99340789 2.60341259,5.99340789 Z" id="Shape" fill="#F0881C"></path>
                                <path d="M3.72665035,1.57178289 L3.72665035,2.92438816 L2.99355944,3.19501974 L2.26051049,2.92438816 L2.26051049,1.57798026 C1.74631469,1.829625 1.39487413,2.335125 1.39487413,2.91813158 C1.39487413,3.75213158 2.11353147,4.42819737 2.99997902,4.42819737 C3.88646853,4.42819737 4.60508392,3.75209211 4.60508392,2.91813158 C4.6051049,2.33028947 4.24783217,1.82125658 3.72665035,1.57178289 Z" id="Shape" fill="#F5F5F5"></path>
                            </g>
                        </g>
                    </g>
                </g>
            </g>
        </g>
    </g>
</svg>