<?xml version="1.0" encoding="UTF-8" standalone="no"?>
<svg width="104px" height="76px" viewBox="0 0 104 76" version="1.1" xmlns="http://www.w3.org/2000/svg" xmlns:xlink="http://www.w3.org/1999/xlink">
    <!-- Generator: Sketch 49 (51002) - http://www.bohemiancoding.com/sketch -->
    <title>choerodon_logo_fixed (1)</title>
    <desc>Created with Sketch.</desc>
    <defs></defs>
    <g id="首页" stroke="none" stroke-width="1" fill="none" fill-rule="evenodd">
        <g transform="translate(-501.000000, -996.000000)" id="choerodon_logo_fixed-(1)">
            <g transform="translate(502.000000, 996.000000)">
                <path d="M72.713,64.599 C76.157,65.378 85.433,58.826 86.396,59.692 C87.047,60.278 83.748,64.587 83.748,64.587 L80.666,67.286 C80.666,67.286 71.682,64.366 72.713,64.599 Z M87.53,30.78 C90.696,32.343 93.204,40.919 94.497,40.852 C95.372,40.807 95.522,35.382 95.522,35.382 L94.826,31.345 C94.826,31.345 86.582,30.312 87.529,30.78 L87.53,30.78 Z" id="Shape" stroke="#000000" stroke-width="0.9377" fill="#FFFFFF" fill-rule="nonzero"></path>
                <path d="M59.68,4.5 L44.77,0.985 C44.77,0.985 24.805,8.274 13.029,19.901 C21.201,21.568 23.582,21.126 23.582,21.126 L59.68,4.5 Z" id="Shape" stroke="#000000" stroke-width="1.5628" fill="#FF5F2E" fill-rule="nonzero" stroke-linejoin="round"></path>
                <path d="M0.742,40.568 C0.742,40.568 33.292,5.082 59.68,4.5 C86.068,3.918 93.984,29.426 96.036,34.704 C86.1,37.414 76.244,38.43 64.771,35.192 C63.251,52.466 72.053,63.645 86.111,64.165 C73.085,74.069 65.244,75.555 55.575,74.872 C39.773,73.757 15.115,60.8 3.973,27.667 C2.09107795,31.7247493 0.994755942,36.1022331 0.742,40.568 Z" id="Shape" fill="#5CC2F2" fill-rule="nonzero"></path>
                <path d="M50.1,62.516 C30.668,60.381 18.453,49.395 6.626,34.634 C18.676,62.634 40.922,73.839 55.566,74.872 C65.235,75.554 73.076,74.069 86.101,64.165 C80.9765759,64.092112 76.0460401,62.1944975 72.195,58.813 C68.675,60.768 63.309,63.968 50.1,62.516 Z" id="Shape" fill="#B2E7FB" fill-rule="nonzero" opacity="0.9"></path>
                <path d="M0.742,40.568 C0.742,40.568 33.292,5.082 59.68,4.5 C86.068,3.918 94.72,28.726 96.037,34.704 C87.017,37.35 77.616,38.87 64.772,35.192 C63.252,52.466 72.054,63.645 86.112,64.165 C73.086,74.069 65.245,75.555 55.576,74.872 C39.773,73.757 15.115,60.8 3.973,27.667 C2.09107795,31.7247493 0.994755942,36.1022331 0.742,40.568 Z" id="Shape" stroke="#000000" stroke-width="1.5628" stroke-linecap="round" stroke-linejoin="round"></path>
                <path d="M56.517,39.739 L39.043,31.424 C34.3472052,36.7746688 31.2920753,43.3647227 30.243,50.406 C42.563,48.27 56.517,39.74 56.517,39.74 L56.517,39.739 Z" id="Shape" stroke="#000000" stroke-width="1.5628" fill="#FF5F2E" fill-rule="nonzero" stroke-linejoin="round"></path>
                <circle id="Oval" stroke="#000000" stroke-width="1.563" fill="#FFFFFF" fill-rule="nonzero" stroke-linecap="round" stroke-linejoin="round" cx="73.676" cy="25.43" r="5.529"></circle>
                <ellipse id="Oval" fill="#000000" fill-rule="nonzero" cx="74.361" cy="25.43" rx="2.839" ry="2.719"></ellipse>
                <path d="M37.28,34.819 C37.28,34.819 41.19,37.891 44.963,38.43 M33.659,39.564 C36.3836638,40.3507018 39.167864,40.9142306 41.984,41.249 M31.54,45.145 C34.6458096,45.1844213 37.7450818,44.8500182 40.771,44.149" id="Shape" stroke="#000000" stroke-width="1.5628" stroke-linecap="round" stroke-linejoin="round"></path>
                <path d="M89.03,43.944 C93.4364467,43.1754825 97.9674742,44.1950537 101.62,46.777 C101.683879,46.4388984 101.711701,46.094973 101.703,45.751 C101.553,39.639 93.358,38.254 88.23,38.839 C83.102,39.424 77.433,42.711 76.856,49.296 C76.7819185,50.2814119 76.9210777,51.2712158 77.264,52.198 C79.7543101,47.8260032 84.0704854,44.7978934 89.029,43.944 L89.03,43.944 Z" id="Shape" stroke="#231815" stroke-width="0.938" fill="#FFC7C7" fill-rule="nonzero" stroke-linejoin="round"></path>
                <path d="M90.081,50.021 C92.8541283,49.5373344 95.705987,50.1704018 98.014,51.782 C99.474,50.072 101.225,48.87 101.62,46.777 C97.7372978,44.0394704 92.8798429,43.0670563 88.2425367,44.098965 C83.6052304,45.1308737 79.6184803,48.0713295 77.263,52.197 C78.1795495,54.438001 79.6526677,56.4081245 81.543,57.921 C82.5824885,53.8346136 85.9263377,50.7406327 90.081,50.021 Z" id="Shape" stroke="#231815" stroke-width="0.938" fill="#FFE2E2" fill-rule="nonzero" stroke-linejoin="round"></path>
                <path d="M81.543,57.921 C86.093,61.823 92.554,64.021 94.36,61.599 C96.555,58.655 95.33,56.083 96.958,53.254 C97.263714,52.7317278 97.6172293,52.2389489 98.014,51.782 C95.1355366,49.7775677 91.4569409,49.3126133 88.1702705,50.5378065 C84.8836001,51.7629996 82.4069932,54.5224682 81.543,57.922 L81.543,57.921 Z" id="Shape" stroke="#231815" stroke-width="0.938" fill="#F6F6F6" fill-rule="nonzero" stroke-linejoin="round"></path>
                <path d="M88.23,38.983 C83.103,39.568 77.433,42.855 76.856,49.439 C76.7815678,50.4243407 76.9203866,51.4141491 77.263,52.341 C78.1795882,54.5819791 79.6526997,56.5520936 81.543,58.065 C86.093,61.966 92.553,64.165 94.36,61.742 C96.555,58.798 95.33,56.226 96.958,53.398 C97.263685,52.875709 97.6172021,52.3829274 98.014,51.926 C99.474,50.216 101.224,49.014 101.62,46.921 C101.683599,46.582533 101.711087,46.2382705 101.702,45.894 C101.554,39.782 93.358,38.398 88.23,38.983 Z" id="Shape" stroke="#000000" stroke-width="1.5628" stroke-linecap="round" stroke-linejoin="round"></path>
                <circle id="Oval" fill="#FFFFFF" fill-rule="nonzero" cx="75.156" cy="24.421" r="1.009"></circle>
            </g>
        </g>
    </g>
</svg>