<?xml version="1.0" encoding="UTF-8" standalone="no"?>
<svg width="41px" height="39px" viewBox="0 0 41 39" version="1.1" xmlns="http://www.w3.org/2000/svg" xmlns:xlink="http://www.w3.org/1999/xlink">
    <!-- Generator: Sketch 49 (51002) - http://www.bohemiancoding.com/sketch -->
    <title>database</title>
    <desc>Created with Sketch.</desc>
    <defs></defs>
    <g id="首页" stroke="none" stroke-width="1" fill="none" fill-rule="evenodd">
        <g transform="translate(-485.000000, -914.000000)" fill-rule="nonzero" id="开发手册">
            <g transform="translate(200.000000, 864.000000)">
                <g id="Group" transform="translate(264.666667, 32.000000)">
                    <g id="database" transform="translate(21.000000, 18.000000)">
                        <g id="database-(2)">
                            <path d="M1.638,24.263318 C0.588445312,24.7973849 0,25.3910753 0,26.0177573 C0,28.3434686 8.05900781,30.2284435 18,30.2284435 C27.9409922,30.2284435 36,28.3434686 36,26.0177573 C36,25.3910753 35.4115547,24.7973849 34.362,24.263318 C31.5173672,25.7124854 25.2620859,26.7194854 18,26.7194854 C10.7379141,26.7194854 4.48263281,25.7124854 1.638,24.263318 Z" id="Shape" fill="#396BD7"></path>
                            <path d="M18,30.228364 C8.05900781,30.228364 0,28.3433891 0,26.0176778 L0,33.7371632 C0,36.0628745 8.05900781,37.9478494 18,37.9478494 C27.9409922,37.9478494 36,36.0628745 36,33.7371632 L36,26.0176778 C36,28.3433891 27.9409922,30.228364 18,30.228364 Z" id="Shape" fill="#4B87EA"></path>
                            <path d="M1.638,13.034954 C0.588445312,13.5689414 0,14.1626318 0,14.7893138 C0,17.1150251 8.05900781,19 18,19 C27.9409922,19 36,17.1150251 36,14.7893138 C36,14.1626318 35.4115547,13.5689414 34.362,13.0348745 C31.5173672,14.4840418 25.2620859,15.4911213 18,15.4911213 C10.7379141,15.4911213 4.48263281,14.4840418 1.638,13.034954 Z" id="Shape" fill="#396BD7"></path>
                            <g id="Group" transform="translate(0.000000, 3.497908)" fill="#4B87EA">
                                <path d="M18,4.27372803 C8.05900781,4.27372803 0,2.38875314 0,0.063041841 L0,7.7825272 C0,8.40920921 0.589007813,9.00289958 1.638,9.53696653 C4.48263281,10.9861339 10.7379141,11.9932134 18,11.9932134 C25.2620859,11.9932134 31.5173672,10.9861339 34.362,9.53696653 C35.4109922,9.00297908 36,8.4092887 36,7.78260669 L36,0.063041841 C36,2.38875314 27.9409922,4.27372803 18,4.27372803 Z" id="Shape"></path>
                                <path d="M18,15.5020921 C8.05900781,15.5020921 0,13.6171172 0,11.2914059 L0,19.0108912 C0,19.6375732 0.589007813,20.2312636 1.638,20.7653305 C4.48263281,22.2145774 10.7379141,23.2215774 18,23.2215774 C25.2620859,23.2215774 31.5173672,22.2144979 34.362,20.7653305 C35.4109922,20.2313431 36,19.6376527 36,19.0109707 L36,11.2914059 C36,13.6171172 27.9409922,15.5020921 18,15.5020921 Z" id="Shape"></path>
                            </g>
                            <path d="M18,0.0520711297 C8.05900781,0.0520711297 0,1.23523849 0,3.56094979 C0,5.88666109 8.05900781,7.77163598 18,7.77163598 C27.9409922,7.77163598 36,5.88666109 36,3.56094979 C36,1.23523849 27.9409922,0.0520711297 18,0.0520711297 Z" id="Shape" fill="#7DBFFF"></path>
                            <g id="Group" transform="translate(15.468750, 10.573222)" fill="#EFEFEF">
                                <path d="M0.669164062,0.00548535565 L4.39333594,0.00548535565 C4.73596875,0.00548535565 5.01405469,0.319899582 5.01405469,0.707292887 C5.01405469,1.09468619 4.73596875,1.40910042 4.39333594,1.40910042 L0.669164062,1.40910042 C0.32653125,1.40910042 0.0484453125,1.09468619 0.0484453125,0.707292887 C0.048515625,0.319899582 0.32653125,0.00548535565 0.669164062,0.00548535565 Z" id="Shape"></path>
                                <path d="M0.669164062,11.2338494 L4.39333594,11.2338494 C4.73596875,11.2338494 5.01405469,11.5482636 5.01405469,11.9356569 C5.01405469,12.3230502 4.73596875,12.6374644 4.39333594,12.6374644 L0.669164062,12.6374644 C0.32653125,12.6374644 0.0484453125,12.3230502 0.0484453125,11.9356569 C0.048515625,11.5482636 0.32653125,11.2338494 0.669164062,11.2338494 Z" id="Shape"></path>
                                <path d="M0.669164062,22.4622929 L4.39333594,22.4622929 C4.73596875,22.4622929 5.01405469,22.7767071 5.01405469,23.1641004 C5.01405469,23.5514937 4.73596875,23.8659079 4.39333594,23.8659079 L0.669164062,23.8659079 C0.32653125,23.8659079 0.0484453125,23.5514937 0.0484453125,23.1641004 C0.048515625,22.7767071 0.32653125,22.4622929 0.669164062,22.4622929 Z" id="Shape"></path>
                            </g>
                        </g>
                        <g id="Group" transform="translate(23.052632, 22.157895)">
                            <path d="M17.1929825,7.61122807 L16.1796491,7.41614035 C14.6757895,7.12701754 13.9866667,5.36982456 14.8919298,4.1354386 L15.5284211,3.26807018 L14.154386,1.89403509 L13.3003509,2.47298246 C12.0329825,3.33192982 10.3024561,2.57684211 10.0694737,1.06385965 L9.90526316,0 L7.96210526,0 L7.71017544,1.30877193 C7.42736842,2.77964912 5.73263158,3.48140351 4.49263158,2.64140351 L3.38947368,1.89403509 L2.0154386,3.26807018 L2.65192982,4.1354386 C3.55719298,5.37052632 2.86807018,7.12701754 1.36421053,7.41614035 L0.350877193,7.61122807 L0.350877193,9.55438596 L1.41403509,9.71789474 C2.9277193,9.95087719 3.68210526,11.6807018 2.82315789,12.9487719 L2.24421053,13.802807 L3.61824561,15.1768421 L4.48561404,14.5403509 C5.72070175,13.6350877 7.47719298,14.3242105 7.76631579,15.8280702 L7.96210526,16.8421053 L9.90526316,16.8421053 L10.0203509,16.0940351 C10.2582456,14.5473684 12.0526316,13.8042105 13.314386,14.7298246 L13.9242105,15.1775439 L15.2982456,13.8035088 L14.7192982,12.9494737 C13.8603509,11.6821053 14.6154386,9.95157895 16.1284211,9.71859649 L17.1915789,9.55508772 L17.1915789,7.61122807 L17.1929825,7.61122807 Z" id="Shape" fill="#BDC3C7"></path>
                            <g transform="translate(4.912281, 4.912281)">
                                <circle id="Oval" fill="#FFFFFF" cx="3.85964912" cy="3.50877193" r="2.80701754"></circle>
                                <path d="M3.85964912,7.01754386 C1.92491228,7.01754386 0.350877193,5.44350877 0.350877193,3.50877193 C0.350877193,1.57403509 1.92491228,0 3.85964912,0 C5.79438596,0 7.36842105,1.57403509 7.36842105,3.50877193 C7.36842105,5.44350877 5.79438596,7.01754386 3.85964912,7.01754386 Z M3.85964912,1.40350877 C2.69894737,1.40350877 1.75438596,2.34807018 1.75438596,3.50877193 C1.75438596,4.66947368 2.69894737,5.61403509 3.85964912,5.61403509 C5.02035088,5.61403509 5.96491228,4.66947368 5.96491228,3.50877193 C5.96491228,2.34807018 5.02035088,1.40350877 3.85964912,1.40350877 Z" id="Shape" fill="#ECF0F1"></path>
                            </g>
                        </g>
                    </g>
                </g>
            </g>
        </g>
    </g>
</svg>