<svg xmlns="http://www.w3.org/2000/svg" xmlns:xlink="http://www.w3.org/1999/xlink" width="900" height="297" viewBox="0 0 900 297">
  <defs>
    <radialGradient id="404pic-a" cx="49.015%" cy="100%" r="100%" fx="49.015%" fy="100%" gradientTransform="matrix(0 1 -.5125 0 1.003 .51)">
      <stop offset="0%" stop-color="#A1B7FE" stop-opacity=".2"/>
      <stop offset="100%" stop-color="#A1B7FE" stop-opacity="0"/>
    </radialGradient>
    <linearGradient id="404pic-b" x1="53.231%" x2="53.231%" y1="93.49%" y2="0%">
      <stop offset="0%" stop-color="#A1B7FE" stop-opacity=".05"/>
      <stop offset="100%" stop-color="#A1B7FE" stop-opacity=".6"/>
    </linearGradient>
    <path id="404pic-c" d="M214.798363,107.373342 C214.798363,48.0726827 166.714112,0 107.399182,0 C48.0842514,0 0,48.0726827 0,107.373342"/>
  </defs>
  <g fill="none" fill-rule="evenodd">
    <rect width="900" height="95.584" y="192.845" fill="url(#404pic-a)" transform="matrix(1 0 0 -1 0 481.274)"/>
    <path fill="url(#404pic-b)" d="M243.252177,135.558632 L243.252177,99.8748156 C252.244169,89.9072691 252.244169,89.9072691 262.435094,77.9462134 L305.796479,27.3110773 C315.387937,16.3467762 319.184556,11.363003 324.379929,3.58831673 L365.34345,3.58831673 C364.144517,15.3500216 363.744873,23.3240587 363.744873,36.680571 L363.744873,101.469623 L369.539713,101.469623 C375.734196,101.469623 382.328324,100.87157 389.322096,99.8748156 L389.322096,136.156685 C383.327434,135.359281 375.934018,134.960579 369.739535,134.960579 L363.744873,134.960579 L363.744873,144.928126 C363.744873,156.091778 364.144517,161.872955 365.34345,169.44829 L324.180107,169.44829 C325.179218,162.670358 325.778684,154.297619 325.778684,144.529424 L325.778684,134.761228 L269.229044,134.761228 C256.24061,134.761228 250.645593,134.960579 243.252177,135.558632 Z M325.978506,101.868325 L325.978506,78.7436171 C325.978506,69.7728253 326.37815,58.8085242 327.177438,50.0370833 C323.180997,55.6189093 320.183666,59.6059279 314.788471,66.3838595 L285.614452,101.868325 L325.978506,101.868325 Z M470.849492,173.036607 C451.266931,173.036607 434.681701,166.657377 422.492556,154.49697 C415.898428,147.91839 410.902877,140.343054 407.905546,132.369017 C402.710173,118.215101 400.112486,102.86508 400.112486,86.7176543 C400.112486,65.7858067 405.108037,44.0565554 412.701275,31.4974468 C424.89042,11.163652 445.671914,0 470.849492,0 C490.232231,0 507.217105,6.57858067 519.40625,18.5396364 C526.000377,25.1182171 530.995929,32.6935524 533.993259,40.6675896 C539.188633,54.8215056 541.786319,70.1715271 541.786319,86.5183033 C541.786319,107.450151 536.790768,129.378753 529.19753,141.937862 C517.208207,161.872955 496.226892,173.036607 470.849492,173.036607 Z M470.849492,33.6903071 C452.066219,33.6903071 441.076006,52.6286453 441.076006,85.1228468 C441.076006,120.806663 451.266931,139.146949 471.049314,139.146949 C490.631875,139.146949 500.622977,121.205365 500.622977,85.7208996 C500.622977,51.6318907 490.232231,33.6903071 470.849492,33.6903071 Z M552.177066,135.558632 L552.177066,99.8748156 C561.169058,89.9072691 561.169058,89.9072691 571.359983,77.9462134 L614.721368,27.3110773 C624.312826,16.3467762 628.109445,11.363003 633.304818,3.58831673 L674.268338,3.58831673 C673.069406,15.3500216 672.669762,23.3240587 672.669762,36.680571 L672.669762,101.469623 L678.464601,101.469623 C684.659085,101.469623 691.253213,100.87157 698.246984,99.8748156 L698.246984,136.156685 C692.252323,135.359281 684.858907,134.960579 678.664423,134.960579 L672.669762,134.960579 L672.669762,144.928126 C672.669762,156.091778 673.069406,161.872955 674.268338,169.44829 L633.104996,169.44829 C634.104106,162.670358 634.703572,154.297619 634.703572,144.529424 L634.703572,134.761228 L578.153932,134.761228 C565.165499,134.761228 559.570482,134.960579 552.177066,135.558632 Z M634.903395,101.868325 L634.903395,78.7436171 C634.903395,69.7728253 635.303039,58.8085242 636.102327,50.0370833 C632.105886,55.6189093 629.108555,59.6059279 623.71336,66.3838595 L594.539341,101.868325 L634.903395,101.868325 Z M814.826498,173.18612 L723.657688,172.902775 C723.657688,152.753771 723.657688,122.530266 723.657688,82.2322584 C774.008832,82.2322584 814.826498,122.953689 814.826498,173.18612 Z M84.2271293,173.18612 C84.2271293,100.016506 143.683,40.7008147 217.025533,40.7008147 C217.025533,99.3997384 217.025533,143.423931 217.025533,172.773393 L84.2271293,173.18612 Z"/>
    <g transform="translate(155.205 135.331)">
      <g fill="#0E1D80" fill-opacity=".1" transform="translate(182.329 31.515)">
        <path d="M29.1393128,78.3550606 C44.3128996,78.3550606 56.613522,74.2558396 56.613522,69.1991943 C56.613522,64.1425489 44.3128996,60.0433279 29.1393128,60.0433279 C13.965726,60.0433279 1.66510359,64.1425489 1.66510359,69.1991943" transform="rotate(-11 29.14 69.2)"/>
        <path d="M62.8514963,24.3309509 C78.0250831,24.3309509 90.3257055,20.2317299 90.3257055,15.1750845 C90.3257055,10.1184392 78.0250831,6.01921818 62.8514963,6.01921818 C47.6779095,6.01921818 35.3772871,10.1184392 35.3772871,15.1750845" transform="rotate(-11 62.851 15.175)"/>
        <path d="M302.717535,100.0253 C311.968888,98.551956 318.359972,95.4045039 318.359972,91.7595989 C318.359972,86.7029535 306.059349,82.6037325 290.885762,82.6037325 C275.712176,82.6037325 263.411553,86.7029535 263.411553,91.7595989" transform="rotate(-11 290.886 91.315)"/>
        <path d="M401.791198,81.7135674 C411.042551,80.2402233 417.433635,77.0927711 417.433635,73.4478661 C417.433635,68.3912208 405.133013,64.2919998 389.959426,64.2919998 C374.785839,64.2919998 362.485217,68.3912208 362.485217,73.4478661" transform="rotate(-11 389.96 73.003)"/>
        <path d="M405.030284,51.79855 C420.203871,51.79855 432.504493,47.699329 432.504493,42.6426836 C432.504493,37.5860383 420.203871,33.4868173 405.030284,33.4868173 C389.856697,33.4868173 377.556075,37.5860383 377.556075,42.6426836" transform="rotate(-11 405.03 42.643)"/>
      </g>
      <path fill="#F49130" d="M254.760849,56.5999012 C254.760849,25.3406389 229.414112,0 198.147327,0 C166.880542,0 141.533805,25.3406389 141.533805,56.5999012"/>
      <g transform="translate(0 2.497)">
        <mask id="404pic-d" fill="#fff">
          <use xlink:href="#404pic-c"/>
        </mask>
        <use fill="#5266D4" xlink:href="#404pic-c"/>
        <path fill="#BBCBFF" fill-opacity=".2" d="M14.6410781,-25.4192697 L117.044949,-25.4192697 L117.044949,-9.60459142 L14.6410781,-9.60459142 L14.6410781,-25.4192697 Z M14.052375,4.59736076 L116.456246,4.59736076 L116.456246,20.412039 L14.052375,20.412039 L14.052375,4.59736076 Z M13.463672,35.791114 L115.867543,35.791114 L115.867543,51.6057923 L13.463672,51.6057923 L13.463672,35.791114 Z M13.463672,66.3963058 L115.867543,66.3963058 L115.867543,82.2109841 L13.463672,82.2109841 L13.463672,66.3963058 Z M18.1732962,97.0014977 L120.577167,97.0014977 L120.577167,112.816176 L18.1732962,112.816176 L18.1732962,97.0014977 Z" mask="url(#404pic-d)" transform="rotate(45 67.02 43.698)"/>
      </g>
      <path fill="#5266D4" d="M588.614119,83.2351488 C588.614119,37.2656455 551.339505,0 505.358939,0 C459.378373,0 422.10376,37.2656455 422.10376,83.2351488"/>
      <path fill="#0E1D80" d="M266.416574 65.7557675C266.416574 55.6424768 258.029786 47.4440348 247.684159 47.4440348 237.338532 47.4440348 228.951744 55.6424768 228.951744 65.7557675M409.615483 52.4381437C409.615483 39.1069878 398.619472 28.2999506 385.055205 28.2999506 371.490938 28.2999506 360.494927 39.1069878 360.494927 52.4381437"/>
      <path fill="#A1B7FE" d="M457.903487,109.870396 C457.903487,80.4499143 433.674988,56.5999012 403.78762,56.5999012 C373.900253,56.5999012 349.671754,80.4499143 349.671754,109.870396"/>
      <path fill="#0E1D80" d="M486.210248,129.014481 C486.210248,113.38485 473.53688,100.71453 457.903487,100.71453 C442.270095,100.71453 429.596726,113.38485 429.596726,129.014481"/>
      <path fill="#0E1D80" fill-opacity=".1" d="M78.5270631,127.598241 C90.4934347,127.63551 108.442992,127.691415 132.375735,127.765953 C132.375735,83.8650777 96.7784795,62.4263616 52.867039,62.4263616 C52.867039,86.5066191 52.867039,99.8556956 52.867039,111.519483" transform="matrix(-1 0 0 1 185.243 0)"/>
      <path fill="#A1B7FE" d="M106.982906,127.765953 C106.982906,83.8650777 71.3856497,48.2763863 27.4742092,48.2763863 C27.4742092,83.4950245 27.4742092,109.909003 27.4742092,127.518322" transform="matrix(-1 0 0 1 134.457 0)"/>
      <path fill="#F49130" d="M583.202532,111.118924 C583.202532,82.8476791 560.278645,59.9293071 532.000597,59.9293071 C532.000597,82.6093726 532.000597,99.6194217 532.000597,110.959454"/>
      <g fill="#BBCBFF" fill-opacity=".6" transform="translate(462.066 16.647)">
        <g transform="translate(0 49.109)">
          <ellipse cx="54.116" cy="3.329" rx="3.33" ry="3.329"/>
          <ellipse cx="41.628" cy="3.329" rx="3.33" ry="3.329"/>
          <ellipse cx="29.139" cy="3.329" rx="3.33" ry="3.329"/>
          <ellipse cx="15.818" cy="3.329" rx="3.33" ry="3.329"/>
          <ellipse cx="3.33" cy="3.329" rx="3.33" ry="3.329"/>
        </g>
        <g transform="translate(12.488 37.456)">
          <ellipse cx="41.628" cy="3.329" rx="3.33" ry="3.329"/>
          <ellipse cx="29.139" cy="3.329" rx="3.33" ry="3.329"/>
          <ellipse cx="16.651" cy="3.329" rx="3.33" ry="3.329"/>
          <ellipse cx="3.33" cy="3.329" rx="3.33" ry="3.329"/>
        </g>
        <g transform="translate(25.81 24.97)">
          <ellipse cx="28.307" cy="3.329" rx="3.33" ry="3.329"/>
          <ellipse cx="15.818" cy="3.329" rx="3.33" ry="3.329"/>
          <ellipse cx="3.33" cy="3.329" rx="3.33" ry="3.329"/>
        </g>
        <g transform="translate(38.297 12.485)">
          <ellipse cx="15.818" cy="3.329" rx="3.33" ry="3.329"/>
          <ellipse cx="3.33" cy="3.329" rx="3.33" ry="3.329"/>
        </g>
        <ellipse cx="3.33" cy="3.329" rx="3.33" ry="3.329" transform="translate(50.786)"/>
      </g>
    </g>
    <g transform="translate(412.618 193.06)">
      <ellipse cx="51.577" cy="91.092" fill="#0E1D80" fill-opacity=".1" rx="51.577" ry="12.062"/>
      <g transform="translate(6.655)">
        <path fill="#0E1D80" d="M27.4349503,46.1016869 C31.4434101,54.8895706 27.7963688,92.9276363 26.3178385,92.9276363 L24.0179026,93.2804346 L22.4079474,74.5500548 C22.4079474,74.5500548 18.0052129,50.1749031 17.7752193,48.1864038 L24.1821837,44.2094054 L27.4349503,46.1016869 Z"/>
        <path fill="#0E1D80" d="M13.7042996,43.9457722 L18.5310536,47.5985199 C20.1736013,47.8217733 16.7563301,90.4832244 14.192082,92.5379569 L11.9908334,92.5396544 C11.9908334,92.5396544 10.7229646,75.2846601 10.529039,71.1792995 C10.3351134,67.073939 6.92922902,52.9959488 7.6903085,46.0352393" transform="rotate(4 13.27 68.243)"/>
        <path fill="#FFE4A8" d="M14.3253154,16.4987065 L20.6008549,18.3268429 L20.46943,14.7026427 L15.8695581,10.9180797 C15.6395645,12.7462161 14.3253154,16.4987065 14.3253154,16.4987065 Z"/>
        <path fill="#FFE4A8" d="M20.5351424,14.7988604 C20.5351424,14.7988604 17.7752193,13.0027966 17.019526,12.0406196 C15.1138648,10.2445558 19.9437303,3.86211471 21.7179666,3.89418728 L26.0221325,5.81854137 L26.9421069,8.22398397 L26.2849823,12.2651276 L25.0035894,11.9764744 L23.1307844,15.2158038 L20.5351424,14.7988604 Z"/>
        <path fill="#0E1D80" d="M26.9092506,7.67875032 C25.6278577,7.67875032 21.7836791,5.85061393 21.7508228,5.14501744 C21.9479602,5.7864688 20.46943,8.92958047 19.1551808,8.92958047 C17.8409317,8.92958047 15.5081396,5.65817853 15.278146,7.67875032 C15.6395645,8.06362113 16.6252513,13.0990143 15.278146,12.7141435 C10.3497118,11.3991682 12.2882292,-1.23742362 21.7179666,0.109624244 C34.6304642,3.73382444 28.1906435,7.67875032 26.9092506,7.67875032 Z"/>
        <path fill="#FFE4A8" d="M15.278146,10.1804106 C14.2924591,8.83336277 15.1795773,6.36377502 16.5595388,6.39584759 C17.4138008,6.33170246 18.2352065,6.87693611 18.4323438,7.64667775 C19.4180307,12.1689099 17.1509509,13.2593772 15.278146,10.1804106 Z"/>
        <path fill="#5266D4" d="M23.8207652,16.0817632 C25.2007268,16.466634 26.9421069,19.5135279 27.0735318,21.0850838 C27.2049567,22.8170025 26.7449695,28.0127585 26.7449695,28.0127585 L33.4804962,25.7997513 L33.2833588,28.0127585 C33.2833588,28.0127585 28.5192058,31.5728136 26.6464008,32.1821923 C26.0221325,32.3746278 24.6750271,32.2784101 24.1164713,31.9576844 C21.4222606,30.5144188 18.6951937,24.9979371 19.1223246,20.9567935 C18.9908997,20.6039953 18.2352065,14.7667879 23.8207652,16.0817632 Z"/>
        <path fill="#5266D4" d="M8.44405056,51.5219509 C12.0582356,54.0877564 25.95642,54.0877564 28.6506307,51.3936606 C30.4905795,45.2678001 26.6135446,19.8663262 24.2807524,17.6853916 C24.2478962,17.3005207 20.9951296,15.7610375 20.9951296,15.7610375 C20.9951296,15.7610375 15.6724207,13.7404657 13.9638968,14.7347153 C11.1711175,17.6212464 5.55270251,45.2357276 8.44405056,51.5219509 Z"/>
        <path fill="#0E1D80" d="M4.79700927,15.3440941 C4.63272813,16.5949242 5.22414023,16.8515048 6.37410821,17.3325933 C9.16688758,18.5192783 6.89980785,24.8696468 2.10279858,29.6484595 C-3.58132884,35.6781023 4.17274094,46.5827754 10.5797054,41.6756725 C12.6167915,40.1041167 12.0910919,35.77432 12.0910919,35.77432 L11.9925232,18.5834235 L13.1424911,17.7495367 L15.9352705,19.1286571 C14.1610342,23.3622361 14.2596029,26.8260735 15.8695581,27.8203231 C16.5923951,28.269339 17.0523823,28.2372665 17.742363,27.8203231 C18.1037816,26.7298558 19.1551808,22.6887122 18.3009189,17.7495367 C16.8552449,13.644248 5.25699646,11.5595311 4.79700927,15.3440941 Z"/>
        <path fill="#7589F2" d="M12.5839353,17.0439402 C5.55270251,22.2717688 9.4297374,37.6345289 11.2696862,38.1156174 C15.146721,38.8212139 24.4778898,33.6575305 24.4778898,33.6575305 L24.3136086,31.6048861 L14.851015,31.4765958 C14.851015,31.4765958 17.742363,20.3474147 15.7381331,17.877827 C15.2452897,17.2684482 14.2924591,16.8515048 12.5839353,17.0439402 Z"/>
        <path fill="#0E1D80" d="M24.7078834,25.9921867 C25.233583,26.7619283 26.2192698,26.6657106 26.5149759,26.0884044 C26.8106819,26.0884044 25.95642,16.4987065 23.787909,15.5365295 C22.7693659,14.7988604 21.3894043,15.79311 21.9808164,16.2100534 C24.1493275,16.5949242 25.0364456,26.344985 24.7078834,25.9921867 Z"/>
        <polygon fill="#FFE4A8" points="33.776 22.785 26.055 21.534 24.774 35.389 32.495 36.64 36.372 35.389 38.967 20.251"/>
        <polygon fill="#F49130" points="32.924 22.612 33.792 22.608 33.737 36.636 32.869 36.639" transform="rotate(10 33.33 29.624)"/>
        <path fill="#FFE4A8" d="M27.2378129,31.3803781 C27.7306563,32.1501198 27.3692378,32.9840065 26.7778257,33.3688774 C26.2192698,33.7537482 24.3136086,33.8820385 23.9521901,33.5933853 C23.4922029,33.1443694 22.9007908,32.2463375 23.1636406,31.6048861 C23.5579154,30.6427091 26.4164072,30.0974754 27.2378129,31.3803781 Z"/>
        <path fill="#F49130" d="M17.043569,94.5763903 C17.5514488,93.7741776 14.0387781,92.1087708 12.3728746,91.4363756 L9.40232605,91.2780816 C9.11167567,92.2405138 7.69768514,93.5244746 8.31286973,94.3259018 C9.25410527,95.127101 16.5356892,95.3786029 17.043569,94.5763903 Z" transform="rotate(4 12.626 93.173)"/>
        <path fill="#F49130" d="M31.8607955,94.2600967 C32.3680082,93.6341996 28.8537489,92.3323337 27.187193,91.8065801 L24.2163759,91.6814007 C23.9265401,92.4324772 22.5135905,93.4339126 23.1294916,94.0598096 C24.071458,94.6857067 31.3535828,94.8859938 31.8607955,94.2600967 Z"/>
      </g>
      <g transform="translate(44.09 .832)">
        <path fill="#F49130" d="M44.7763875 93.2733305C43.6374532 94.3213454 35.8276182 93.7814589 35.3720445 93.2733305 34.9164708 92.765202 35.8276182 89.6846732 35.8276182 89.6846732L39.7650767 89.6846732C39.7650767 89.6846732 45.9153218 92.2253155 44.7763875 93.2733305zM6.18278606 90.9232363C7.45188426 90.9232363 5.6621304 84.1587762 5.6621304 84.1587762L3.09139303 81.8404401C3.09139303 81.8404401.0325409793 82.856697.0325409793 83.904712.0325409793 84.9527269 4.91368787 90.9232363 6.18278606 90.9232363z"/>
        <path fill="#0E1D80" d="M27.5622095,48.4627519 L36.055405,47.4147369 C38.7888473,53.9251328 40.1555684,61.5153017 40.87147,69.550083 L39.7325357,90.3833499 L36.055405,91.4313648 L34.4608971,72.1542413 C34.4283561,72.1542413 27.2693406,58.0219185 27.5622095,48.4627519 Z"/>
        <path fill="#0E1D80" d="M16.4006536,47.4147369 L16.4006536,68.2480038 L2.86360618,82.3168106 L5.17401571,85.7149196 C5.17401571,85.7149196 21.8024561,73.996207 25.3819638,69.2960188 C26.9113899,67.1999889 30.2305698,47.4147369 30.2305698,47.4147369 L16.4006536,47.4147369 Z"/>
        <path fill="#FFE4A8" d="M31.402045,12.131567 L33.1267169,11.2423422 C33.1267169,11.2423422 36.087946,13.9735327 35.8276182,14.5134191 C35.5672904,15.0533056 34.1354873,16.1013206 33.4195857,14.8309994 C32.7036842,13.5289203 31.402045,12.131567 31.402045,12.131567 Z"/>
        <path fill="#7589F2" d="M33.2568808,14.6086932 L36.2831919,14.1640808 C36.2831919,14.1640808 39.276962,18.6419629 38.7888473,20.0075581 C38.2356507,21.5001855 33.1917989,25.406423 33.1917989,25.406423 L30.1004058,21.1190891 L34.591061,18.2608665 L33.2568808,14.6086932 Z"/>
        <polygon fill="#FFE4A8" points="21.933 17.435 28.636 19.277 28.083 15.085 22.486 11.719"/>
        <path fill="#0E1D80" d="M32.5735203,28.0740974 C33.0941759,28.8362901 34.0704053,28.741016 34.3632741,28.1693715 C34.6561429,28.1693715 33.8100775,18.6737209 31.6623728,17.72098 C30.6536025,16.9905454 29.2868814,17.9750443 29.872619,18.3878987 C32.0203236,18.768995 32.8989301,28.3916777 32.5735203,28.0740974 Z"/>
        <path fill="#5266D4" d="M22.2254889,16.9270293 C23.8199968,16.3553848 29.7099141,17.689222 30.4908976,18.3561406 C31.3044221,19.0230592 33.9402414,25.8827934 34.7537659,28.5504679 C36.7062246,34.7750415 40.6111421,51.860861 39.276962,53.5440365 C37.7800769,55.4812762 18.5483582,55.9258887 16.0427028,54.5602934 C13.7973752,53.3217303 15.3593422,32.9013178 17.1165551,25.9780675 C17.7999157,23.4374252 20.5984399,17.4986738 22.2254889,16.9270293 Z"/>
        <path fill="#303F9F" d="M5.79229431,71.9319351 C5.56450746,71.741387 5.56450746,71.3920487 5.75975333,71.1697425 L41.6524535,34.0446068 C41.8476994,33.8223006 42.2056501,33.8223006 42.433437,34.0128488 C42.6612238,34.203397 42.6612238,34.5527353 42.465978,34.7750415 L6.57327782,71.9001771 C6.37803194,72.1224833 6.02008117,72.1224833 5.79229431,71.9319351 Z"/>
        <polygon fill="#FFE4A8" points="27.562 38.554 36.088 38.554 36.348 40.904 27.562 42.206"/>
        <path fill="#0E1D80" d="M12.8862278,18.3878987 C12.7560639,19.7534939 13.3743425,20.0393161 14.6759817,20.5474446 C17.7999157,21.7860077 15.4569652,28.8680481 10.2504085,34.235155 C4.13270437,41.0313732 12.9513098,52.8771179 19.8825383,47.2877048 C22.0953249,45.5092552 21.4119644,40.7455509 21.4119644,40.7455509 L20.8913087,21.7542497 L22.1604069,20.8015088 L25.2843409,22.2623782 C23.4295051,26.9943244 23.59221,30.8052879 25.4145048,31.8533028 C26.2280293,32.3296733 26.716144,32.2979153 27.4971275,31.8215448 C27.8876192,30.5829817 28.9289306,26.1368577 27.8876192,20.6744767 C26.1304064,16.2283527 13.2767195,14.1958389 12.8862278,18.3878987 Z"/>
        <path fill="#7589F2" d="M21.4119644,19.7852519 C19.1015548,21.7224917 18.2554894,25.5652132 17.4094239,29.4396927 C16.4331945,40.4914867 19.8174564,43.7625636 21.4119644,43.7625636 C23.0064724,43.7625636 29.4170453,42.7145487 29.4170453,42.7145487 L29.1567174,38.3001827 L23.559669,38.0461185 C23.559669,38.0461185 26.4883571,30.2336434 25.9677015,23.9773117 C25.7399146,22.4529263 24.2430296,18.5466888 21.4119644,19.7852519 Z"/>
        <path fill="#FFE4A8" d="M38.6912244 37.1568937C39.342044 37.3474418 39.4071259 38.4272148 39.4071259 38.4272148 39.244421 39.2529236 37.9753228 41.0631312 37.2919623 41.1266472 36.6086017 41.1901633 34.6561429 40.4279706 35.4371264 39.0623754 36.185569 37.6967801 38.0729458 36.9663455 38.6912244 37.1568937zM29.90516 16.2918688L31.8250777 13.0207918 33.3545038 12.7667276 32.8663891 6.25633167 28.0503241 3.14404485 22.4532757 6.25633167 22.1929479 12.9890338C24.6335213 16.0060465 29.90516 16.2918688 29.90516 16.2918688z"/>
        <path fill="#0E1D80" d="M25.6748327,0.285822259 C28.4408159,-0.285822259 31.2718811,5.89805982e-17 32.8989301,1.46086932 C34.493438,2.95349667 35.1767986,5.65292912 32.8989301,7.08204041 C30.4908976,7.43137873 30.2305698,7.97126522 27.5622095,6.79621816 C27.5622095,6.79621816 27.3018816,7.97126522 26.4883571,9.14631228 C25.6748327,10.3213593 23.559669,9.74971483 23.559669,9.74971483 C23.559669,9.74971483 23.559669,13.3066141 21.1516365,13.3066141 C16.8562273,12.6714535 17.9951615,2.15954596 25.6748327,0.285822259 Z"/>
        <path fill="#FFDB73" d="M25.9351605,10.4483915 C25.9351605,9.65444074 25.8375376,8.79697397 25.2192589,8.41587762 C24.1454066,7.74895902 23.3318821,8.51115171 23.1366363,9.36861848 C22.9413904,10.4166334 23.59221,11.3693743 24.4057345,11.7187126 C25.2517999,12.0680509 25.9351605,11.4328904 25.9351605,10.4483915 Z"/>
      </g>
    </g>
  </g>
</svg>
