<?xml version="1.0" encoding="UTF-8" standalone="no"?>
<svg width="45px" height="36px" viewBox="0 0 45 36" version="1.1" xmlns="http://www.w3.org/2000/svg" xmlns:xlink="http://www.w3.org/1999/xlink">
    <!-- Generator: Sketch 49 (51002) - http://www.bohemiancoding.com/sketch -->
    <title>Group 8</title>
    <desc>Created with Sketch.</desc>
    <defs></defs>
    <g id="首页" stroke="none" stroke-width="1" fill="none" fill-rule="evenodd">
        <g transform="translate(-484.000000, -378.000000)" fill-rule="nonzero" id="快速入门">
            <g transform="translate(200.000000, 328.000000)">
                <g id="Group" transform="translate(264.666667, 32.000000)">
                    <g id="Group-8" transform="translate(20.000000, 18.000000)">
                        <g id="browser">
                            <path d="M37.8679365,35.4730159 L2.13206349,35.4730159 C0.968095238,35.4730159 0.0244444444,34.5295238 0.0244444444,33.3653968 L0.0244444444,2.26396825 C0.0244444444,1.1 0.967936508,0.156349206 2.13206349,0.156349206 L37.8674603,0.156349206 C39.0314286,0.156349206 39.9750794,1.09984127 39.9750794,2.26396825 L39.9750794,33.3650794 C39.9753968,34.5292063 39.0315873,35.4730159 37.8679365,35.4730159 Z" id="Shape" fill="#4B87EA"></path>
                            <path d="M39.9753968,5.61031746 L0.0246031746,5.61031746 L0.0246031746,2.26396825 C0.0246031746,1.1 0.968095238,0.156349206 2.13222222,0.156349206 L37.867619,0.156349206 C39.0315873,0.156349206 39.9752381,1.09984127 39.9752381,2.26396825 L39.9753968,5.61031746 Z" id="Shape" fill="#A9A9A9"></path>
                            <path d="M0.0246031746,20.6642857 L0.0246031746,33.3650794 C0.0246031746,34.5290476 0.968095238,35.4726984 2.13222222,35.4726984 L19.9333333,35.4726984 L19.9333333,20.6642857 L0.0246031746,20.6642857 Z" id="Shape" fill="#EFEFEF"></path>
                            <path d="M39.9755556,20.6642857 L19.9334921,20.6642857 L19.9334921,35.4726984 L37.8679365,35.4726984 C39.0319048,35.4726984 39.9755556,34.5292063 39.9755556,33.3650794 L39.9755556,20.6642857 Z" id="Shape" fill="#396BD7"></path>
                            <g id="Group" transform="translate(2.698413, 1.904762)" fill="#FFFFFF">
                                <circle id="Oval" cx="0.935396825" cy="0.905079365" r="1"></circle>
                                <circle id="Oval" cx="4.4515873" cy="0.905079365" r="1"></circle>
                            </g>
                            <g id="Group" transform="translate(3.492063, 23.333333)" fill="#CCCCCC">
                                <rect id="Rectangle-path" x="0.0158730159" y="0.0731746032" width="12.9430159" height="1.59809524"></rect>
                                <rect id="Rectangle-path" x="0.0158730159" y="3.81095238" width="12.9430159" height="1.59809524"></rect>
                                <rect id="Rectangle-path" x="0.0158730159" y="7.54619048" width="12.9430159" height="1.59809524"></rect>
                            </g>
                        </g>
                        <g id="Group" transform="translate(25.000000, 17.000000)">
                            <polygon id="Shape" fill="#EDDCC7" points="3.04872727 11.992 3.04290909 11.9970909 1.59709091 17.2989091 4.97672727 13.9192727"></polygon>
                            <path d="M17.0487273,1.84727273 L16.1418182,0.940363636 C15.5781818,0.376727273 14.664,0.376727273 14.1003636,0.940363636 L11.4952727,3.54545455 L13.4232727,5.47345455 L17.0487273,1.84727273 Z" id="Shape" fill="#D75A4A"></path>
                            <rect id="Rectangle-path" fill="#F29C21" transform="translate(8.236076, 8.732221) rotate(45.000000) translate(-8.236076, -8.732221) " x="6.87281616" y="2.75991448" width="2.72651931" height="11.9446127"></rect>
                            <polygon id="Shape" fill="#D6C4B1" points="7.15709091 16.1112727 7.16290909 16.1054545 4.97672727 13.9192727 1.59709091 17.2989091 1.50036364 17.6538182"></polygon>
                            <path d="M15.6087273,7.65963636 L18.2138182,5.05454545 C18.7774545,4.49090909 18.7774545,3.57672727 18.2138182,3.01309091 L17.0487273,1.848 L13.4232727,5.47345455 L15.6087273,7.65963636 Z" id="Shape" fill="#A34740"></path>
                            <rect id="Rectangle-path" fill="#E18C25" transform="translate(10.292142, 10.790065) rotate(-135.000000) translate(-10.292142, -10.790065) " x="8.74633901" y="4.81775818" width="3.09160671" height="11.9446127"></rect>
                            <path d="M0.986181818,18.8952727 C0.8,18.8952727 0.613818182,18.824 0.472,18.6821818 C0.187636364,18.3978182 0.187636364,17.9381818 0.472,17.6538182 L2.07709091,16.0487273 C2.36145455,15.7643636 2.82109091,15.7643636 3.10545455,16.0487273 C3.38981818,16.3330909 3.38981818,16.7927273 3.10545455,17.0770909 L1.50036364,18.6821818 C1.35854545,18.8247273 1.17236364,18.8952727 0.986181818,18.8952727 Z" id="Shape" fill="#5E5E5E"></path>
                        </g>
                    </g>
                </g>
            </g>
        </g>
    </g>
</svg>