<?xml version="1.0" encoding="UTF-8" standalone="no"?>
<svg width="30px" height="40px" viewBox="0 0 30 40" version="1.1" xmlns="http://www.w3.org/2000/svg" xmlns:xlink="http://www.w3.org/1999/xlink">
    <!-- Generator: Sketch 49 (51002) - http://www.bohemiancoding.com/sketch -->
    <title>java</title>
    <desc>Created with Sketch.</desc>
    <defs></defs>
    <g id="首页" stroke="none" stroke-width="1" fill="none" fill-rule="evenodd">
        <g transform="translate(-1019.000000, -376.000000)" fill-rule="nonzero" id="快速入门">
            <g transform="translate(200.000000, 328.000000)">
                <g id="Group" transform="translate(794.000000, 32.000000)">
                    <g id="java" transform="translate(25.000000, 16.000000)">
                        <g id="Group" transform="translate(9.140625, 0.000000)" fill="#DB380E">
                            <path d="M5.505,7.41164062 C3.65671875,8.7115625 1.56195312,10.1849219 0.43953125,12.6225 C-1.51,16.8752344 4.42875,21.5140625 4.68257813,21.7094531 C4.7415625,21.7548437 4.8121875,21.7775 4.88257813,21.7775 C4.95734375,21.7775 5.0321875,21.7519531 5.09296875,21.7010156 C5.21085938,21.6024219 5.24429688,21.4349219 5.17351563,21.2985156 C5.15203125,21.2571094 3.0203125,17.1164844 3.09953125,14.1460156 C3.12757813,13.1114062 4.57546875,11.9377344 6.10828125,10.6951563 C7.5121875,9.55703125 9.10359375,8.26710937 10.0346875,6.758125 C12.07875,3.4365625 9.806875,0.17046875 9.78367187,0.1378125 C9.6934375,0.01109375 9.526875,-0.034765625 9.38445313,0.02765625 C9.2421875,0.09046875 9.16335938,0.244296875 9.19585938,0.39640625 C9.20046875,0.418046875 9.64226563,2.57789062 8.41289063,4.803125 C7.90648437,5.72265625 6.79367188,6.5053125 5.505,7.41164062 Z" id="Shape"></path>
                            <path d="M13.2919531,8.87632813 C13.4223437,8.778125 13.460625,8.59898438 13.3817969,8.45601563 C13.3028125,8.31304688 13.1309375,8.25 12.9782812,8.30796875 C12.6642969,8.42734375 5.28953125,11.2700781 5.28953125,14.7048438 C5.28953125,17.0725781 6.3009375,18.3233594 7.03945312,19.2367969 C7.32914062,19.5950781 7.57921875,19.9044531 7.66164062,20.1685937 C7.89367187,20.9297656 7.34398437,22.3055469 7.1128125,22.7714844 C7.04617187,22.9053906 7.07882812,23.0677344 7.1921875,23.1655469 C7.2534375,23.2184375 7.32992187,23.2453125 7.40648437,23.2453125 C7.47164063,23.2453125 7.53710938,23.2259375 7.59367188,23.1865625 C7.72046875,23.0984375 10.6926562,20.9970312 10.1596094,18.4652344 C9.96101563,17.5028906 9.488125,16.7997656 9.07085938,16.1792969 C8.42445313,15.2179688 7.95757813,14.5235937 8.66585938,13.2410938 C9.49570313,11.7451562 13.2539062,8.90476562 13.2919531,8.87632813 Z" id="Shape"></path>
                        </g>
                        <g id="Group" transform="translate(0.000000, 21.015625)" fill="#73A1FB">
                            <path d="M3.23578125,2.2840625 C3.109375,2.66257813 3.1690625,3.03804688 3.40820313,3.37023438 C4.20765625,4.48015625 7.03945313,5.09125 11.3822656,5.09125 C11.3825,5.09125 11.3826563,5.09125 11.3828125,5.09125 C11.97125,5.09125 12.5925,5.0796875 13.2288281,5.056875 C20.1721875,4.80835938 22.7475,2.64523438 22.85375,2.55328125 C22.9695312,2.45304688 23.0004687,2.28617188 22.9285156,2.15117188 C22.8564844,2.01625 22.70125,1.9484375 22.5528906,1.98929688 C20.1075,2.65695313 15.5413281,2.89398438 12.3741406,2.89398438 C8.83015625,2.89398438 7.0253125,2.63867188 6.5834375,2.45015625 C6.81015625,2.13882813 8.20859375,1.58289063 9.94148437,1.24203125 C10.1071094,1.20953125 10.2209375,1.0565625 10.2045312,0.88859375 C10.188125,0.720625 10.0470312,0.5925 9.87820312,0.5925 C8.86242187,0.5925 3.76828125,0.6740625 3.23578125,2.2840625 Z" id="Shape"></path>
                            <path d="M26.4696875,0.05609375 C25.0375781,0.05609375 23.6795313,0.77390625 23.6223437,0.804296875 C23.4899219,0.875234375 23.4227344,1.02710937 23.4590625,1.17304688 C23.4955469,1.31875 23.6265625,1.42117188 23.7767969,1.42132813 C23.8071875,1.42132813 26.8316406,1.44609375 27.1055469,3.17414063 C27.3482031,4.66492188 24.2439063,7.08039062 23.0272656,7.88539062 C22.8958594,7.97234375 22.8448438,8.1403125 22.9058594,8.285625 C22.9578125,8.40929687 23.0782031,8.48664062 23.2080469,8.48664062 C23.2307031,8.48664062 23.2536719,8.48429687 23.2764844,8.47945312 C23.5652344,8.41765625 30.3394531,6.92484375 29.6232031,2.98070312 C29.18625,0.563515625 27.6670313,0.05609375 26.4696875,0.05609375 Z" id="Shape"></path>
                            <path d="M21.8239844,7.40273438 C21.8475781,7.27640625 21.795,7.14789063 21.6898437,7.0740625 L20.0655469,5.93632813 C19.9863281,5.88085938 19.88625,5.8634375 19.7932812,5.88804688 C19.7763281,5.89234375 18.0777344,6.33890625 15.6116406,6.61273438 C14.6328906,6.7225 13.5366406,6.78046875 12.4411719,6.78046875 C9.97570313,6.78046875 8.36367188,6.49078125 8.12890625,6.27828125 C8.0978125,6.21859375 8.10765625,6.19148438 8.11320313,6.17640625 C8.15585938,6.0578125 8.38445313,5.916875 8.53179688,5.86109375 C8.69453125,5.80085938 8.78226563,5.62414063 8.73164063,5.45820313 C8.68117188,5.29203125 8.51,5.19429688 8.34109375,5.23484375 C6.71171875,5.62804688 5.915,6.17789063 5.97296875,6.8690625 C6.0759375,8.09453125 8.914375,8.72351563 11.3139844,8.88976563 C11.6590625,8.91335938 12.0322656,8.9253125 12.4229688,8.9253125 C12.4232031,8.9253125 12.4233594,8.9253125 12.4235938,8.9253125 C16.41375,8.9253125 21.5290625,7.67335938 21.5801562,7.660625 C21.7050781,7.63015625 21.8003125,7.52929688 21.8239844,7.40273438 Z" id="Shape"></path>
                            <path d="M9.57828125,10.0327344 C9.70132812,9.95273437 9.75585938,9.800625 9.7121875,9.66054687 C9.66867188,9.52046875 9.53765625,9.4284375 9.39046875,9.43039062 C9.17210938,9.43617187 7.25382813,9.52273437 7.11953125,10.7440625 C7.07890625,11.1090625 7.1834375,11.4425781 7.43039063,11.7351562 C8.11914062,12.5514062 9.97835938,13.0365625 13.1132812,13.2182812 C13.4841406,13.2405469 13.8608594,13.2517187 14.233125,13.2517187 C18.2186719,13.2517187 20.9028906,12.0038281 21.0153125,11.9507031 C21.1242969,11.8991406 21.1961719,11.7920312 21.2025781,11.6717187 C21.2089844,11.5514062 21.1489062,11.4372656 21.0460938,11.374375 L18.9933594,10.12125 C18.9221094,10.0778125 18.836875,10.0634375 18.755625,10.0800781 C18.7426563,10.0828125 17.4392969,10.353125 15.4723438,10.6201562 C15.1001563,10.6707812 14.6340625,10.6964844 14.0871875,10.6964844 C12.1223438,10.6964844 9.936875,10.3754687 9.51773438,10.1652344 C9.51164063,10.1260156 9.519375,10.0761719 9.57828125,10.0327344 Z" id="Shape"></path>
                            <path d="M12.375625,17.0195312 C21.5048437,17.0117969 26.4046094,15.3882813 27.3485156,14.3666406 C27.6826563,14.0052344 27.71875,13.6630469 27.6903906,13.4395313 C27.6202344,12.8895313 27.1192188,12.5528125 27.0624219,12.51625 C26.9253906,12.428125 26.7414844,12.4511719 26.6346094,12.5744531 C26.5279687,12.6977344 26.5254687,12.8778906 26.6325,13.0010938 C26.6900781,13.0751563 26.7233594,13.1991406 26.555,13.3676563 C26.1776562,13.7200781 22.3717969,14.7898438 16.035,15.11125 C15.1669531,15.1563281 14.2564844,15.1792969 13.3290625,15.1794531 C7.65539062,15.1794531 3.503125,14.4022656 2.95804687,13.9494531 C3.168125,13.6475781 4.636875,13.1653125 6.19882812,12.8925 C6.37484375,12.8617969 6.49375,12.6959375 6.46648437,12.519375 C6.43921875,12.3428906 6.27648437,12.2214062 6.09859375,12.2444531 C6.05453125,12.2504688 5.905,12.259375 5.731875,12.27 C3.1546875,12.4273438 0.176484375,12.7780469 0.02109375,14.1059375 C-0.02609375,14.5105469 0.094140625,14.8778906 0.37859375,15.1975781 C1.07460937,15.9796094 3.07515625,17.019375 12.3753125,17.019375 C12.3754688,17.0195312 12.3754688,17.0195312 12.375625,17.0195312 Z" id="Shape"></path>
                            <path d="M29.1416406,14.6545312 C29.0125781,14.5948437 28.8600781,14.625 28.7638281,14.7289062 C28.7504687,14.7433594 27.3778906,16.1785937 23.2510156,17.0214062 C21.6710937,17.3379687 18.7054687,17.4985156 14.4364844,17.4985156 C10.1595312,17.4985156 6.08976562,17.3302344 6.04921875,17.3285156 C5.87921875,17.3202344 5.73382812,17.4438281 5.71070312,17.6111719 C5.6875,17.7783594 5.7953125,17.9360156 5.95945312,17.9750781 C6.00179687,17.9850781 10.266875,18.9842969 16.0984375,18.9842969 C18.8953906,18.9842969 21.6171094,18.7571875 24.188125,18.3089063 C28.9819531,17.4685156 29.3175781,15.0914844 29.3295312,14.9907031 C29.34625,14.8498437 29.2704687,14.7142187 29.1416406,14.6545312 Z" id="Shape"></path>
                        </g>
                    </g>
                </g>
            </g>
        </g>
    </g>
</svg>