<?xml version="1.0" encoding="UTF-8" standalone="no"?>
<svg width="36px" height="38px" viewBox="0 0 36 38" version="1.1" xmlns="http://www.w3.org/2000/svg" xmlns:xlink="http://www.w3.org/1999/xlink">
    <!-- Generator: Sketch 49 (51002) - http://www.bohemiancoding.com/sketch -->
    <title>admin</title>
    <desc>Created with Sketch.</desc>
    <defs></defs>
    <g id="首页" stroke="none" stroke-width="1" fill="none" fill-rule="evenodd">
        <g transform="translate(-222.000000, -645.000000)" fill-rule="nonzero" id="主要功能">
            <g transform="translate(200.000000, 596.000000)">
                <g id="Group" transform="translate(0.000000, 32.000000)">
                    <g id="admin" transform="translate(22.000000, 17.000000)">
                        <path d="M31.954375,19 C31.954375,18.52525 31.930625,18.056125 31.884375,17.5935 C31.822125,16.96925 32.06325,16.353125 32.544,15.95 L35.01625,13.87675 C35.714375,13.29125 35.891375,12.288625 35.43575,11.4995 L33.150875,7.54225 C32.695125,6.753125 31.738625,6.405125 30.882375,6.716875 L27.850625,7.82125 C27.260375,8.03625 26.6055,7.9365 26.09575,7.569375 C25.33675,7.0225 24.521125,6.5495 23.6595,6.1605 C23.08825,5.9025 22.67625,5.385875 22.567375,4.7685 L22.008625,1.59375 C21.850625,0.69625 21.071,0.04175 20.1595,0.04175 L15.590125,0.04175 C14.678875,0.04175 13.89925,0.696125 13.741,1.59375 L13.18225,4.7685 C13.073625,5.385875 12.661625,5.902625 12.090125,6.1605 C11.228375,6.5495 10.41275,7.0225 9.653875,7.569375 C9.14425,7.936625 8.489375,8.036375 7.899,7.82125 L4.86725,6.716875 C4.010875,6.404875 3.054375,6.752875 2.59875,7.54225 L0.313875,11.4995 C-0.141875,12.288625 0.035,13.29125 0.733375,13.87675 L3.205625,15.95 C3.686375,16.353125 3.9275,16.969 3.86525,17.5935 C3.819125,18.056125 3.79525,18.52525 3.79525,19 C3.79525,19.478125 3.819375,19.95075 3.866125,20.416375 C3.929,21.042375 3.686875,21.65975 3.203875,22.063125 L0.737375,24.123625 C0.037,24.708625 -0.141125,25.712875 0.315,26.50325 L2.59675,30.45525 C3.053125,31.245625 4.011625,31.5935 4.868625,31.27925 L7.886375,30.173375 C8.477875,29.956625 9.13475,30.056125 9.645625,30.424875 C10.4095,30.976125 11.23075,31.45275 12.09875,31.843625 C12.67175,32.10175 13.084625,32.6205 13.192375,33.2395 L13.743,36.402625 C13.8995,37.301875 14.68,37.958 15.5925,37.958 L20.155875,37.958 C21.0685,37.958 21.849,37.301625 22.005375,36.402625 L22.556,33.2395 C22.66375,32.620375 23.076625,32.10175 23.649625,31.843625 C24.517875,31.4525 25.339,30.976125 26.10275,30.424875 C26.6135,30.056125 27.2705,29.956625 27.862,30.173375 L30.87975,31.27925 C31.73675,31.59325 32.69525,31.245625 33.151625,30.45525 L35.433375,26.50325 C35.88975,25.712875 35.711625,24.708875 35.011,24.123625 L32.5445,22.063125 C32.06175,21.65975 31.819625,21.042375 31.88225,20.416375 C31.93025,19.95075 31.954375,19.478125 31.954375,19 Z" id="Shape" fill="#1A8763"></path>
                        <path d="M15.512,37.95825 L20.23825,37.95825 C21.294125,37.95825 22.15,37.102375 22.15,36.0465 L22.15,26.64825 C22.15,26.497875 22.028,26.375625 21.877375,26.375625 L13.872625,26.375625 C13.72225,26.375625 13.6,26.497625 13.6,26.64825 L13.6,36.0465 C13.600125,37.10225 14.456125,37.95825 15.512,37.95825 Z" id="Shape" fill="#CCD1D0"></path>
                        <path d="M22.204625,9.954625 L22.204625,18.521125 L17.836625,20.235125 L13.468875,18.521125 L13.468875,9.993875 C10.405125,11.587625 8.311125,14.789125 8.311125,18.4815 C8.311125,23.7635 12.593125,28.04525 17.874875,28.04525 C23.156875,28.04525 27.438625,23.76325 27.438625,18.4815 C27.43875,14.7585 25.31,11.534625 22.204625,9.954625 Z" id="Shape" fill="#F5F5F5"></path>
                    </g>
                </g>
            </g>
        </g>
    </g>
</svg>