<?xml version="1.0" encoding="utf-8"?>
<!-- Generator: Adobe Illustrator 17.0.0, SVG Export Plug-In . SVG Version: 6.00 Build 0)  -->
<!DOCTYPE svg PUBLIC "-//W3C//DTD SVG 1.1//EN" "http://www.w3.org/Graphics/SVG/1.1/DTD/svg11.dtd">
<svg version="1.1" id="图层_1" xmlns="http://www.w3.org/2000/svg" xmlns:xlink="http://www.w3.org/1999/xlink" x="0px" y="0px"
	 width="764.602px" height="138.51px" viewBox="0 0 764.602 138.51" enable-background="new 0 0 764.602 138.51"
	 xml:space="preserve">
<g>
	<path fill="#FFFFFF" stroke="#FFFFFF" stroke-width="5" stroke-miterlimit="10" d="M242.668,55.367
		c16.237,0,29.446,13.209,29.446,29.445c0,16.237-13.209,29.446-29.446,29.446c-16.236,0-29.445-13.209-29.445-29.446
		C213.222,68.576,226.432,55.367,242.668,55.367 M242.668,46.557c-21.128,0-38.255,17.128-38.255,38.255
		c0,21.128,17.128,38.256,38.255,38.256c21.128,0,38.256-17.128,38.256-38.256C280.924,63.685,263.796,46.557,242.668,46.557
		L242.668,46.557z"/>
	<path fill="#FFFFFF" stroke="#FFFFFF" stroke-width="5" stroke-miterlimit="10" d="M638.385,55.368
		c16.237,0,29.446,13.209,29.446,29.445c0,16.237-13.209,29.446-29.446,29.446c-16.236,0-29.445-13.209-29.445-29.446
		C608.94,68.578,622.149,55.368,638.385,55.368 M638.385,46.558c-21.128,0-38.255,17.128-38.255,38.255
		c0,21.128,17.128,38.256,38.255,38.256c21.128,0,38.256-17.128,38.256-38.256C676.641,63.686,659.514,46.558,638.385,46.558
		L638.385,46.558z"/>
	<path fill="#FFFFFF" stroke="#FFFFFF" stroke-width="5" stroke-miterlimit="10" d="M458.607,55.367
		c16.237,0,29.446,13.209,29.446,29.446c0,16.236-13.209,29.445-29.446,29.445c-16.236,0-29.445-13.209-29.445-29.445
		C429.161,68.576,442.371,55.367,458.607,55.367 M458.607,46.557c-21.128,0-38.255,17.128-38.255,38.256
		c0,21.128,17.128,38.255,38.255,38.255c21.128,0,38.256-17.128,38.256-38.255C496.863,63.685,479.735,46.557,458.607,46.557
		L458.607,46.557z"/>
	
		<rect x="132.093" y="15.44" fill="#FFFFFF" stroke="#FFFFFF" stroke-width="5" stroke-miterlimit="10" width="8.81" height="107.629"/>
	<g>
		<path fill="#FFFFFF" stroke="#FFFFFF" stroke-width="5" stroke-miterlimit="10" d="M548.496,55.368
			c16.236,0,29.445,13.209,29.445,29.445c0,16.237-13.209,29.446-29.445,29.446c-16.236,0-29.445-13.209-29.445-29.446
			C519.051,68.577,532.26,55.368,548.496,55.368 M548.496,46.558c-21.128,0-38.255,17.128-38.255,38.255
			c0,21.128,17.127,38.256,38.255,38.256c21.128,0,38.255-17.128,38.255-38.256C586.752,63.686,569.624,46.558,548.496,46.558
			L548.496,46.558z"/>
		
			<rect x="577.942" y="15.44" fill="#FFFFFF" stroke="#FFFFFF" stroke-width="5" stroke-miterlimit="10" width="8.81" height="107.629"/>
	</g>
	
		<rect x="182.224" y="76.029" fill="#FFFFFF" stroke="#FFFFFF" stroke-width="5" stroke-miterlimit="10" width="8.81" height="47.041"/>
	<path fill="#FFFFFF" stroke="#FFFFFF" stroke-width="5" stroke-miterlimit="10" d="M161.564,46.558
		c-16.277,0-29.471,13.194-29.471,29.471h8.81c0-11.392,9.268-20.661,20.661-20.661c11.392,0,20.661,9.268,20.661,20.661h8.81
		C191.034,59.752,177.84,46.558,161.564,46.558z"/>
	<g>
		
			<rect x="299.827" y="76.002" fill="#FFFFFF" stroke="#FFFFFF" stroke-width="5" stroke-miterlimit="10" width="66.855" height="8.81"/>
		<path fill="#FFFFFF" stroke="#FFFFFF" stroke-width="5" stroke-miterlimit="10" d="M332.558,46.557
			c-21.128,0-38.256,17.128-38.256,38.255h8.81c0-16.236,13.209-29.445,29.446-29.445c16.236,0,29.445,13.209,29.445,29.445h8.81
			C370.813,63.685,353.686,46.557,332.558,46.557z"/>
		<path fill="#FFFFFF" stroke="#FFFFFF" stroke-width="5" stroke-miterlimit="10" d="M332.558,114.258
			c-16.237,0-29.446-13.209-29.446-29.446h-8.81c0,21.128,17.128,38.256,38.256,38.256c14.158,0,26.512-7.698,33.127-19.131
			l-7.638-4.41C352.948,108.324,343.436,114.258,332.558,114.258z"/>
	</g>
	<g>
		
			<rect x="384.191" y="46.558" fill="#FFFFFF" stroke="#FFFFFF" stroke-width="5" stroke-miterlimit="10" width="8.81" height="76.511"/>
		<path fill="#FFFFFF" stroke="#FFFFFF" stroke-width="5" stroke-miterlimit="10" d="M413.662,55.368v-8.81
			c-16.267,0-29.456,13.18-29.47,29.445h8.811C393.017,64.623,402.278,55.368,413.662,55.368z"/>
	</g>
	<g>
		
			<rect x="690.019" y="47.091" fill="#FFFFFF" stroke="#FFFFFF" stroke-width="5" stroke-miterlimit="10" width="8.81" height="75.979"/>
		
			<rect x="740.151" y="76.029" fill="#FFFFFF" stroke="#FFFFFF" stroke-width="5" stroke-miterlimit="10" width="8.81" height="47.041"/>
		<path fill="#FFFFFF" stroke="#FFFFFF" stroke-width="5" stroke-miterlimit="10" d="M740.15,76.003h8.811
			c-0.014-16.265-13.202-29.445-29.47-29.445v8.81C730.874,55.368,740.135,64.623,740.15,76.003z"/>
		<path fill="#FFFFFF" stroke="#FFFFFF" stroke-width="5" stroke-miterlimit="10" d="M719.49,55.368v-8.81
			c-16.267,0-29.456,13.18-29.47,29.445h8.811C698.845,64.623,708.106,55.368,719.49,55.368z"/>
	</g>
	<g>
		<path fill="#FFFFFF" stroke="#FFFFFF" stroke-width="5" stroke-miterlimit="10" d="M24.495,69.254
			c0-7.971,2.081-15.462,5.716-21.972l-7.681-4.434c-4.381,7.811-6.889,16.814-6.889,26.407c0,10.112,2.783,19.572,7.614,27.668
			l7.681-4.435C26.85,85.693,24.495,77.744,24.495,69.254z"/>
		<path fill="#FFFFFF" stroke="#FFFFFF" stroke-width="5" stroke-miterlimit="10" d="M69.723,24.027
			c16.967,0,31.775,9.397,39.512,23.255l7.68-4.434c-9.258-16.51-26.917-27.674-47.192-27.674
			c-20.276,0-37.935,11.165-47.193,27.674l7.681,4.434C37.947,33.424,52.755,24.027,69.723,24.027z"/>
		<path fill="#FFFFFF" stroke="#FFFFFF" stroke-width="5" stroke-miterlimit="10" d="M69.723,114.482
			c-16.449,0-30.87-8.829-38.787-21.995l-7.681,4.435c9.437,15.816,26.712,26.413,46.467,26.413
			c19.755,0,37.03-10.598,46.467-26.413l-7.681-4.435C100.593,105.653,86.171,114.482,69.723,114.482z"/>
	</g>
</g>
<g>
</g>
<g>
</g>
<g>
</g>
<g>
</g>
<g>
</g>
<g>
</g>
</svg>
